<svg width="24" height="24" viewBox="0 0 24 24" fill="none" xmlns="http://www.w3.org/2000/svg">
<path d="M17.0002 13.4101L12.7102 9.17007C12.6172 9.07634 12.5066 9.00194 12.3848 8.95117C12.2629 8.90041 12.1322 8.87427 12.0002 8.87427C11.8682 8.87427 11.7375 8.90041 11.6156 8.95117C11.4938 9.00194 11.3832 9.07634 11.2902 9.17007L7.05019 13.4101C6.95646 13.503 6.88207 13.6136 6.8313 13.7355C6.78053 13.8573 6.75439 13.9881 6.75439 14.1201C6.75439 14.2521 6.78053 14.3828 6.8313 14.5046C6.88207 14.6265 6.95646 14.7371 7.05019 14.8301C7.23756 15.0163 7.49101 15.1209 7.75519 15.1209C8.01938 15.1209 8.27283 15.0163 8.46019 14.8301L12.0002 11.2901L15.5402 14.8301C15.7265 15.0148 15.9779 15.119 16.2402 15.1201C16.3718 15.1208 16.5023 15.0956 16.6241 15.0458C16.7459 14.9961 16.8568 14.9227 16.9502 14.8301C17.0473 14.7404 17.1256 14.6325 17.1807 14.5124C17.2358 14.3923 17.2666 14.2625 17.2713 14.1305C17.2759 13.9985 17.2543 13.8668 17.2078 13.7432C17.1613 13.6195 17.0907 13.5063 17.0002 13.4101Z" fill="black"/>
</svg>
