<svg width="24" height="24" viewBox="0 0 24 24" fill="none" xmlns="http://www.w3.org/2000/svg">
<path d="M12.7098 12.5399C12.6168 12.4462 12.5062 12.3718 12.3844 12.321C12.2625 12.2703 12.1318 12.2441 11.9998 12.2441C11.8678 12.2441 11.7371 12.2703 11.6152 12.321C11.4933 12.3718 11.3827 12.4462 11.2898 12.5399L8.28978 15.5399C8.09617 15.7282 7.98529 15.9857 7.98154 16.2558C7.97779 16.5258 8.08147 16.7863 8.26978 16.9799C8.45808 17.1735 8.71558 17.2844 8.98564 17.2882C9.25569 17.2919 9.51617 17.1882 9.70978 16.9999L11.9998 14.6599L14.2898 16.9999C14.3827 17.0937 14.4933 17.1681 14.6152 17.2188C14.7371 17.2696 14.8678 17.2957 14.9998 17.2957C15.1318 17.2957 15.2625 17.2696 15.3844 17.2188C15.5062 17.1681 15.6168 17.0937 15.7098 16.9999C15.8035 16.907 15.8779 16.7964 15.9287 16.6745C15.9794 16.5527 16.0056 16.422 16.0056 16.2899C16.0056 16.1579 15.9794 16.0272 15.9287 15.9054C15.8779 15.7835 15.8035 15.6729 15.7098 15.5799L12.7098 12.5399ZM9.70978 11.4599L11.9998 9.15994L14.2898 11.4599C14.3827 11.5537 14.4933 11.6281 14.6152 11.6788C14.7371 11.7296 14.8678 11.7557 14.9998 11.7557C15.1318 11.7557 15.2625 11.7296 15.3844 11.6788C15.5062 11.6281 15.6168 11.5537 15.7098 11.4599C15.8035 11.367 15.8779 11.2564 15.9287 11.1345C15.9794 11.0127 16.0056 10.882 16.0056 10.7499C16.0056 10.6179 15.9794 10.4872 15.9287 10.3654C15.8779 10.2435 15.8035 10.1329 15.7098 10.0399L12.7098 7.03994C12.6168 6.94621 12.5062 6.87182 12.3844 6.82105C12.2625 6.77028 12.1318 6.74414 11.9998 6.74414C11.8678 6.74414 11.7371 6.77028 11.6152 6.82105C11.4933 6.87182 11.3827 6.94621 11.2898 7.03994L8.28978 10.0399C8.10147 10.2282 7.99569 10.4836 7.99569 10.7499C7.99569 11.0162 8.10147 11.2716 8.28978 11.4599C8.47808 11.6482 8.73348 11.754 8.99978 11.754C9.26608 11.754 9.52147 11.6482 9.70978 11.4599Z" fill="black"/>
</svg>
