<svg width="24" height="24" viewBox="0 0 24 24" fill="none" xmlns="http://www.w3.org/2000/svg">
<path d="M20.5043 15.7436C19.8924 15.482 19.3712 15.0458 19.0058 14.4897C18.6404 13.9336 18.4469 13.2821 18.4496 12.6166C18.4575 12.0227 18.6166 11.4405 18.9118 10.925C19.2071 10.4095 19.6287 9.97773 20.1371 9.67036C20.2521 9.59928 20.3515 9.50562 20.4293 9.39504C20.5071 9.28446 20.5616 9.15925 20.5896 9.02699C20.6177 8.89472 20.6186 8.75814 20.5923 8.62552C20.5661 8.49289 20.5132 8.36697 20.4369 8.25536C19.9799 7.59082 19.3842 7.03337 18.6908 6.62148C17.9974 6.20958 17.2229 5.95306 16.4208 5.86963C17.1674 4.68476 17.5062 3.28832 17.3856 1.89305C17.3621 1.63969 17.2413 1.4053 17.0487 1.23906C16.856 1.07282 16.6065 0.987662 16.3524 1.00145C14.6354 1.15448 13.0436 1.96434 11.909 3.26219C11.1898 4.09557 10.6823 5.09018 10.4296 6.1616C9.90737 5.98488 9.36066 5.89129 8.80943 5.88426C7.78892 5.91318 6.79319 6.20529 5.91879 6.73227C5.04439 7.25925 4.32098 8.00322 3.81871 8.89205C1.93101 12.1694 3.0858 17.0805 5.13071 20.0366C5.95102 21.2211 7.18198 22.9995 9.03891 22.9995C9.07553 22.9995 9.11264 22.9995 9.14975 22.9975C9.77193 22.9622 10.381 22.8045 10.9422 22.5336C11.3905 22.3064 11.885 22.1854 12.3876 22.1801C12.8601 22.1858 13.3249 22.3015 13.745 22.518C14.3588 22.8084 15.0278 22.9639 15.7069 22.974C17.62 22.9379 18.7499 21.2875 19.5751 20.0814C20.2262 19.1235 20.7356 18.0765 21.0877 16.973C21.1628 16.7323 21.1444 16.4721 21.0363 16.2443C20.9282 16.0165 20.7382 15.8377 20.5043 15.7436ZM13.4232 4.56787C13.9484 3.98036 14.6065 3.527 15.3426 3.24561C15.1816 4.03784 14.8253 4.77733 14.306 5.39697C13.9536 5.81984 13.5247 6.17267 13.0419 6.43705L13.0389 6.43805C13.0106 6.44977 12.9823 6.46051 12.9539 6.47223C12.7674 6.54547 12.5369 6.63629 12.3592 6.69488C12.5308 5.9082 12.8966 5.17699 13.4232 4.56787ZM17.9247 18.9526C17.121 20.1265 16.4887 20.9595 15.6703 20.9741C15.2747 20.9729 14.8857 20.8725 14.5389 20.6821C13.8685 20.3555 13.1333 20.1839 12.3876 20.1801C11.6159 20.184 10.8548 20.3591 10.159 20.6928C9.82077 20.8655 9.45174 20.9697 9.0731 20.9994H9.04332C8.23032 20.9994 7.35582 19.7368 6.77525 18.8979C5.32261 16.7983 3.98277 12.6147 5.55211 9.89008C5.88119 9.30048 6.3571 8.80597 6.93364 8.45453C7.51019 8.10309 8.16779 7.90665 8.84263 7.88428L8.87632 7.88328C9.4456 7.93166 10.0015 8.08217 10.5174 8.32762C10.6488 8.37937 10.7782 8.43113 10.9066 8.47898C10.9393 8.49266 10.973 8.50535 11.0072 8.51609C11.363 8.65922 11.7411 8.73951 12.1244 8.7534C12.6671 8.71026 13.1973 8.56759 13.6884 8.3325C14.3806 7.99652 15.1416 7.82634 15.911 7.83543C16.734 7.86763 17.5241 8.16728 18.1615 8.68895C17.6168 9.19081 17.1831 9.80108 16.8883 10.4805C16.5935 11.16 16.444 11.8936 16.4496 12.6343V12.6353C16.4439 13.5319 16.6658 14.4153 17.0945 15.2028C17.5232 15.9903 18.1447 16.6562 18.9008 17.1382C18.6375 17.7744 18.3104 18.3823 17.9247 18.9526Z" fill="black"/>
</svg>
