<svg width="24" height="24" viewBox="0 0 24 24" fill="none" xmlns="http://www.w3.org/2000/svg">
<path d="M10.2102 6.2099L11.0002 5.4099V9.9999C11.0002 10.2651 11.1055 10.5195 11.2931 10.707C11.4806 10.8945 11.735 10.9999 12.0002 10.9999C12.2654 10.9999 12.5198 10.8945 12.7073 10.707C12.8948 10.5195 13.0002 10.2651 13.0002 9.9999V5.4099L13.7902 6.2099C13.8831 6.30363 13.9937 6.37802 14.1156 6.42879C14.2375 6.47956 14.3682 6.50569 14.5002 6.50569C14.6322 6.50569 14.7629 6.47956 14.8848 6.42879C15.0066 6.37802 15.1172 6.30363 15.2102 6.2099C15.3039 6.11693 15.3783 6.00633 15.4291 5.88447C15.4798 5.76261 15.506 5.63191 15.506 5.4999C15.506 5.36788 15.4798 5.23718 15.4291 5.11532C15.3783 4.99346 15.3039 4.88286 15.2102 4.7899L12.7102 2.2899C12.6151 2.19886 12.5029 2.12749 12.3802 2.0799C12.1367 1.97988 11.8636 1.97988 11.6202 2.0799C11.4974 2.12749 11.3853 2.19886 11.2902 2.2899L8.79018 4.7899C8.60188 4.9782 8.49609 5.23359 8.49609 5.4999C8.49609 5.7662 8.60188 6.02159 8.79018 6.2099C8.97849 6.3982 9.23388 6.50399 9.50019 6.50399C9.76649 6.50399 10.0219 6.3982 10.2102 6.2099ZM13.7902 17.7899L13.0002 18.5899V13.9999C13.0002 13.7347 12.8948 13.4803 12.7073 13.2928C12.5198 13.1053 12.2654 12.9999 12.0002 12.9999C11.735 12.9999 11.4806 13.1053 11.2931 13.2928C11.1055 13.4803 11.0002 13.7347 11.0002 13.9999V18.5899L10.2102 17.7899C10.1169 17.6967 10.0063 17.6227 9.88443 17.5722C9.76261 17.5218 9.63204 17.4958 9.50019 17.4958C9.36833 17.4958 9.23776 17.5218 9.11594 17.5722C8.99411 17.6227 8.88342 17.6967 8.79018 17.7899C8.69695 17.8831 8.62299 17.9938 8.57253 18.1156C8.52206 18.2375 8.49609 18.368 8.49609 18.4999C8.49609 18.6318 8.52206 18.7623 8.57253 18.8841C8.62299 19.006 8.69695 19.1167 8.79018 19.2099L11.2902 21.7099C11.3853 21.8009 11.4974 21.8723 11.6202 21.9199C11.7399 21.9728 11.8693 22.0001 12.0002 22.0001C12.1311 22.0001 12.2605 21.9728 12.3802 21.9199C12.5029 21.8723 12.6151 21.8009 12.7102 21.7099L15.2102 19.2099C15.3985 19.0216 15.5043 18.7662 15.5043 18.4999C15.5043 18.2336 15.3985 17.9782 15.2102 17.7899C15.0219 17.6016 14.7665 17.4958 14.5002 17.4958C14.2339 17.4958 13.9785 17.6016 13.7902 17.7899Z" fill="black"/>
</svg>
