<svg width="24" height="24" viewBox="0 0 24 24" fill="none" xmlns="http://www.w3.org/2000/svg">
<path d="M20.9202 6.61994C20.8726 6.49719 20.8012 6.38505 20.7102 6.28994L17.7102 3.28994C17.6169 3.1967 17.5063 3.12274 17.3844 3.07228C17.2626 3.02182 17.132 2.99585 17.0002 2.99585C16.7339 2.99585 16.4785 3.10164 16.2902 3.28994C16.1019 3.47825 15.9961 3.73364 15.9961 3.99994C15.9961 4.26624 16.1019 4.52164 16.2902 4.70994L17.5902 5.99994H9.00019C8.20454 5.99994 7.44147 6.31601 6.87887 6.87862C6.31626 7.44123 6.00019 8.20429 6.00019 8.99994V17.5899L4.71019 16.2899C4.52188 16.1016 4.26649 15.9958 4.00019 15.9958C3.73388 15.9958 3.47849 16.1016 3.29019 16.2899C3.10188 16.4782 2.99609 16.7336 2.99609 16.9999C2.99609 17.2662 3.10188 17.5216 3.29019 17.7099L6.29019 20.7099C6.38529 20.801 6.49743 20.8723 6.62019 20.9199C6.73989 20.9728 6.86931 21.0002 7.00019 21.0002C7.13106 21.0002 7.26049 20.9728 7.38019 20.9199C7.50294 20.8723 7.61508 20.801 7.71019 20.7099L10.7102 17.7099C10.8985 17.5216 11.0043 17.2662 11.0043 16.9999C11.0043 16.7336 10.8985 16.4782 10.7102 16.2899C10.5219 16.1016 10.2665 15.9958 10.0002 15.9958C9.73388 15.9958 9.47849 16.1016 9.29019 16.2899L8.00019 17.5899V8.99994C8.00019 8.73472 8.10554 8.48037 8.29308 8.29283C8.48062 8.1053 8.73497 7.99994 9.00019 7.99994H17.5902L16.2902 9.28994C16.1965 9.3829 16.1221 9.49351 16.0713 9.61536C16.0205 9.73722 15.9944 9.86793 15.9944 9.99994C15.9944 10.132 16.0205 10.2627 16.0713 10.3845C16.1221 10.5064 16.1965 10.617 16.2902 10.7099C16.3831 10.8037 16.4937 10.8781 16.6156 10.9288C16.7375 10.9796 16.8682 11.0057 17.0002 11.0057C17.1322 11.0057 17.2629 10.9796 17.3848 10.9288C17.5066 10.8781 17.6172 10.8037 17.7102 10.7099L20.7102 7.70994C20.8012 7.61484 20.8726 7.50269 20.9202 7.37994C21.0202 7.13648 21.0202 6.8634 20.9202 6.61994Z" fill="black"/>
</svg>
