<svg width="24" height="24" viewBox="0 0 24 24" fill="none" xmlns="http://www.w3.org/2000/svg">
<path d="M15.2902 16.2899L13.0002 18.5899V5.4099L15.2902 7.7099C15.3831 7.80363 15.4937 7.87802 15.6156 7.92879C15.7375 7.97956 15.8682 8.00569 16.0002 8.00569C16.1322 8.00569 16.2629 7.97956 16.3848 7.92879C16.5066 7.87802 16.6172 7.80363 16.7102 7.7099C16.8039 7.61693 16.8783 7.50633 16.9291 7.38447C16.9798 7.26261 17.006 7.13191 17.006 6.9999C17.006 6.86788 16.9798 6.73718 16.9291 6.61532C16.8783 6.49346 16.8039 6.38286 16.7102 6.2899L12.7102 2.2899C12.6151 2.19886 12.5029 2.12749 12.3802 2.0799C12.1367 1.97988 11.8636 1.97988 11.6202 2.0799C11.4974 2.12749 11.3853 2.19886 11.2902 2.2899L7.29019 6.2899C7.19695 6.38313 7.12299 6.49383 7.07253 6.61565C7.02207 6.73747 6.99609 6.86804 6.99609 6.9999C6.99609 7.13176 7.02207 7.26232 7.07253 7.38415C7.12299 7.50597 7.19695 7.61666 7.29019 7.7099C7.38342 7.80313 7.49411 7.8771 7.61594 7.92756C7.73776 7.97802 7.86833 8.00399 8.00019 8.00399C8.13204 8.00399 8.26261 7.97802 8.38444 7.92756C8.50626 7.8771 8.61695 7.80313 8.71019 7.7099L11.0002 5.4099V18.5899L8.71019 16.2899C8.52188 16.1016 8.26649 15.9958 8.00019 15.9958C7.73388 15.9958 7.47849 16.1016 7.29019 16.2899C7.10188 16.4782 6.99609 16.7336 6.99609 16.9999C6.99609 17.2662 7.10188 17.5216 7.29019 17.7099L11.2902 21.7099C11.3853 21.8009 11.4974 21.8723 11.6202 21.9199C11.7399 21.9728 11.8693 22.0001 12.0002 22.0001C12.1311 22.0001 12.2605 21.9728 12.3802 21.9199C12.5029 21.8723 12.6151 21.8009 12.7102 21.7099L16.7102 17.7099C16.8985 17.5216 17.0043 17.2662 17.0043 16.9999C17.0043 16.7336 16.8985 16.4782 16.7102 16.2899C16.6169 16.1967 16.5063 16.1227 16.3844 16.0722C16.2626 16.0218 16.132 15.9958 16.0002 15.9958C15.7339 15.9958 15.4785 16.1016 15.2902 16.2899Z" fill="black"/>
</svg>
