<svg width="24" height="24" viewBox="0 0 24 24" fill="none" xmlns="http://www.w3.org/2000/svg">
<path d="M20.9202 16.6199C20.8726 16.4971 20.8012 16.385 20.7102 16.2899L17.7102 13.2899C17.5219 13.1016 17.2665 12.9958 17.0002 12.9958C16.7339 12.9958 16.4785 13.1016 16.2902 13.2899C16.1019 13.4782 15.9961 13.7336 15.9961 13.9999C15.9961 14.2662 16.1019 14.5216 16.2902 14.7099L17.5902 15.9999H9.00019C8.73497 15.9999 8.48062 15.8945 8.29308 15.707C8.10554 15.5195 8.00019 15.2651 8.00019 14.9999V6.4099L9.29019 7.7099C9.38315 7.80363 9.49375 7.87802 9.61561 7.92879C9.73747 7.97956 9.86817 8.00569 10.0002 8.00569C10.1322 8.00569 10.2629 7.97956 10.3848 7.92879C10.5066 7.87802 10.6172 7.80363 10.7102 7.7099C10.8039 7.61693 10.8783 7.50633 10.9291 7.38447C10.9798 7.26261 11.006 7.13191 11.006 6.9999C11.006 6.86788 10.9798 6.73718 10.9291 6.61532C10.8783 6.49346 10.8039 6.38286 10.7102 6.2899L7.71019 3.2899C7.61508 3.19886 7.50294 3.12749 7.38019 3.0799C7.13672 2.97988 6.86365 2.97988 6.62019 3.0799C6.49743 3.12749 6.38529 3.19886 6.29019 3.2899L3.29019 6.2899C3.10188 6.4782 2.99609 6.73359 2.99609 6.9999C2.99609 7.13176 3.02207 7.26232 3.07253 7.38415C3.12299 7.50597 3.19695 7.61666 3.29019 7.7099C3.38342 7.80313 3.49411 7.8771 3.61594 7.92756C3.73776 7.97802 3.86833 8.00399 4.00019 8.00399C4.26649 8.00399 4.52188 7.8982 4.71019 7.7099L6.00019 6.4099V14.9999C6.00019 15.7955 6.31626 16.5586 6.87887 17.1212C7.44147 17.6838 8.20454 17.9999 9.00019 17.9999H17.5902L16.2902 19.2899C16.1965 19.3829 16.1221 19.4935 16.0713 19.6153C16.0205 19.7372 15.9944 19.8679 15.9944 19.9999C15.9944 20.1319 16.0205 20.2626 16.0713 20.3845C16.1221 20.5063 16.1965 20.6169 16.2902 20.7099C16.3831 20.8036 16.4937 20.878 16.6156 20.9288C16.7375 20.9796 16.8682 21.0057 17.0002 21.0057C17.1322 21.0057 17.2629 20.9796 17.3848 20.9288C17.5066 20.878 17.6172 20.8036 17.7102 20.7099L20.7102 17.7099C20.8012 17.6148 20.8726 17.5026 20.9202 17.3799C21.0202 17.1364 21.0202 16.8634 20.9202 16.6199Z" fill="black"/>
</svg>
