<svg width="24" height="24" viewBox="0 0 24 24" fill="none" xmlns="http://www.w3.org/2000/svg">
<path d="M20.4702 9.00011C20.668 9.00011 20.8613 8.94146 21.0258 8.83158C21.1902 8.7217 21.3184 8.56552 21.3941 8.3828C21.4698 8.20007 21.4896 7.999 21.451 7.80502C21.4124 7.61104 21.3172 7.43286 21.1773 7.29301C21.0375 7.15315 20.8593 7.05791 20.6653 7.01933C20.4713 6.98074 20.2703 7.00055 20.0875 7.07623C19.9048 7.15192 19.7486 7.28009 19.6387 7.44454C19.5289 7.60899 19.4702 7.80233 19.4702 8.00011C19.4702 8.26533 19.5756 8.51968 19.7631 8.70722C19.9506 8.89475 20.205 9.00011 20.4702 9.00011ZM17.4702 9.00011C17.668 9.00011 17.8613 8.94146 18.0258 8.83158C18.1902 8.7217 18.3184 8.56552 18.3941 8.3828C18.4698 8.20007 18.4896 7.999 18.451 7.80502C18.4124 7.61104 18.3172 7.43286 18.1773 7.29301C18.0375 7.15315 17.8593 7.05791 17.6653 7.01933C17.4713 6.98074 17.2703 7.00055 17.0875 7.07623C16.9048 7.15192 16.7486 7.28009 16.6387 7.44454C16.5289 7.60899 16.4702 7.80233 16.4702 8.00011C16.4702 8.26533 16.5756 8.51968 16.7631 8.70722C16.9506 8.89475 17.205 9.00011 17.4702 9.00011ZM14.4702 9.00011C14.668 9.00011 14.8613 8.94146 15.0258 8.83158C15.1902 8.7217 15.3184 8.56552 15.3941 8.3828C15.4698 8.20007 15.4896 7.999 15.451 7.80502C15.4124 7.61104 15.3172 7.43286 15.1773 7.29301C15.0375 7.15315 14.8593 7.05791 14.6653 7.01933C14.4713 6.98074 14.2703 7.00055 14.0875 7.07623C13.9048 7.15192 13.7486 7.28009 13.6387 7.44454C13.5289 7.60899 13.4702 7.80233 13.4702 8.00011C13.4702 8.13143 13.4961 8.26147 13.5463 8.3828C13.5966 8.50412 13.6702 8.61436 13.7631 8.70722C13.856 8.80008 13.9662 8.87374 14.0875 8.92399C14.2088 8.97425 14.3389 9.00011 14.4702 9.00011ZM18.9102 13.0001C18.6902 13.0001 18.4602 12.9301 18.2402 12.8801C17.7947 12.7819 17.3569 12.6516 16.9302 12.4901C16.4663 12.3213 15.9564 12.3301 15.4985 12.5147C15.0407 12.6993 14.6673 13.0467 14.4502 13.4901L14.2302 13.9401C13.2547 13.3959 12.3567 12.7233 11.5602 11.9401C10.7809 11.144 10.1086 10.2498 9.56021 9.28011L10.0002 9.00011C10.4436 8.78303 10.791 8.40964 10.9756 7.9518C11.1602 7.49396 11.169 6.98402 11.0002 6.52011C10.8414 6.09253 10.7111 5.65491 10.6102 5.21011C10.5602 4.98011 10.5202 4.76011 10.4902 4.53011C10.3688 3.82573 9.99983 3.18785 9.44983 2.73135C8.89983 2.27485 8.2049 2.02972 7.49021 2.04011H4.49021C4.06745 2.03956 3.64936 2.12836 3.26333 2.3007C2.87729 2.47303 2.53204 2.72501 2.25021 3.04011C1.9639 3.36261 1.75048 3.74304 1.6245 4.15548C1.49853 4.56792 1.46296 5.00268 1.52021 5.43011C2.04692 9.61716 3.95259 13.5097 6.93661 16.4937C9.92063 19.4777 13.8132 21.3834 18.0002 21.9101C18.13 21.92 18.2604 21.92 18.3902 21.9101C19.1859 21.9101 19.9489 21.594 20.5115 21.0314C21.0741 20.4688 21.3902 19.7058 21.3902 18.9101V15.9101C21.3798 15.2123 21.1265 14.54 20.6738 14.0089C20.2212 13.4777 19.5975 13.121 18.9102 13.0001ZM19.4002 19.0001C19.4018 19.1451 19.372 19.2886 19.3126 19.4209C19.2532 19.5532 19.1658 19.6709 19.0564 19.766C18.9471 19.8612 18.8183 19.9314 18.6791 19.9718C18.5399 20.0122 18.3935 20.0219 18.2502 20.0001C14.5164 19.5129 11.0473 17.8082 8.38021 15.1501C5.71521 12.465 4.01345 8.97355 3.54021 5.22011C3.51848 5.07345 3.52964 4.92379 3.57288 4.78196C3.61612 4.64014 3.69035 4.50971 3.79021 4.40011C3.8828 4.2947 3.99654 4.20995 4.12403 4.15137C4.25152 4.09279 4.38991 4.0617 4.53021 4.06011H7.53021C7.76275 4.05494 7.98983 4.13099 8.17235 4.27518C8.35487 4.41937 8.48142 4.62268 8.53021 4.85011C8.57021 5.12345 8.62021 5.39345 8.68021 5.66011C8.79573 6.18726 8.94947 6.70529 9.14021 7.21011L7.74021 7.86011C7.6205 7.91503 7.51283 7.99306 7.42337 8.08971C7.3339 8.18636 7.26441 8.29973 7.21888 8.42331C7.17335 8.54689 7.15268 8.67824 7.15806 8.80983C7.16343 8.94142 7.19475 9.07066 7.25021 9.19011C8.68941 12.2729 11.1675 14.7509 14.2502 16.1901C14.4937 16.2901 14.7667 16.2901 15.0102 16.1901C15.2584 16.0978 15.4597 15.9107 15.5702 15.6701L16.2002 14.2701C16.7172 14.455 17.2448 14.6086 17.7802 14.7301C18.0402 14.7901 18.3202 14.8401 18.5902 14.8801C18.8158 14.9309 19.0168 15.0583 19.159 15.2406C19.3012 15.423 19.3759 15.649 19.3702 15.8801L19.4002 19.0001Z" fill="black"/>
</svg>
