<svg width="24" height="24" viewBox="0 0 24 24" fill="none" xmlns="http://www.w3.org/2000/svg">
<path d="M19.2901 3.7099C19.3831 3.80362 19.4937 3.87802 19.6156 3.92879C19.7374 3.97956 19.8681 4.00569 20.0001 4.00569C20.1322 4.00569 20.2629 3.97956 20.3847 3.92879C20.5066 3.87802 20.6172 3.80362 20.7101 3.7099C20.7985 3.61269 20.8695 3.50108 20.9201 3.3799C20.9714 3.25967 20.9986 3.13057 21.0001 2.9999C21.0009 2.86829 20.9757 2.73783 20.9259 2.61599C20.8761 2.49415 20.8028 2.38334 20.7101 2.2899L20.5601 2.1699C20.5044 2.13205 20.4439 2.10178 20.3801 2.0799C20.198 2.00332 19.9973 1.98239 19.8033 2.01977C19.6093 2.05714 19.4308 2.15114 19.2901 2.2899C19.1975 2.38334 19.1241 2.49415 19.0744 2.61599C19.0246 2.73783 18.9994 2.86829 19.0001 2.9999C19.0017 3.13057 19.0289 3.25967 19.0801 3.3799C19.1308 3.50108 19.2018 3.61269 19.2901 3.7099ZM20.0001 4.9999C19.7349 4.9999 19.4806 5.10525 19.293 5.29279C19.1055 5.48033 19.0001 5.73468 19.0001 5.9999V9.9999C19.0001 10.2651 19.1055 10.5195 19.293 10.707C19.4806 10.8945 19.7349 10.9999 20.0001 10.9999C20.2654 10.9999 20.5197 10.8945 20.7072 10.707C20.8948 10.5195 21.0001 10.2651 21.0001 9.9999V5.9999C21.0001 5.73468 20.8948 5.48033 20.7072 5.29279C20.5197 5.10525 20.2654 4.9999 20.0001 4.9999ZM20.0601 12.9999C19.7977 12.9688 19.5336 13.0429 19.3257 13.2059C19.1177 13.3689 18.9827 13.6076 18.9501 13.8699C18.738 15.5632 17.9146 17.1208 16.6348 18.2496C15.3549 19.3785 13.7067 20.0009 12.0001 19.9999H6.41014L7.05014 19.3699C7.23639 19.1825 7.34093 18.9291 7.34093 18.6649C7.34093 18.4007 7.23639 18.1473 7.05014 17.9599C6.06763 16.9815 5.39784 15.7333 5.12572 14.3736C4.85361 13.014 4.99142 11.6042 5.52168 10.3229C6.05195 9.04174 6.95078 7.94688 8.10416 7.17723C9.25755 6.40758 10.6135 5.99781 12.0001 5.9999C13.2263 5.99804 14.4308 6.32247 15.4901 6.9399C15.7157 7.04185 15.9711 7.0565 16.2069 6.98102C16.4427 6.90553 16.6421 6.74528 16.7665 6.53126C16.8909 6.31724 16.9315 6.06468 16.8805 5.82244C16.8294 5.5802 16.6904 5.3655 16.4901 5.2199C15.1293 4.41958 13.5789 3.99833 12.0001 3.9999C10.3076 4.00546 8.65094 4.48818 7.22033 5.39263C5.78971 6.29709 4.64313 7.58663 3.91221 9.11321C3.18129 10.6398 2.89565 12.3415 3.08808 14.0231C3.28052 15.7047 3.94323 17.2979 5.00014 18.6199L3.29014 20.2899C3.15138 20.4305 3.05739 20.6091 3.02001 20.8031C2.98264 20.9971 3.00356 21.1978 3.08014 21.3799C3.15516 21.5625 3.28256 21.7188 3.44628 21.8292C3.61 21.9395 3.80271 21.9989 4.00014 21.9999H12.0001C14.1931 21.9999 16.3106 21.1992 17.9549 19.7482C19.5993 18.2972 20.6572 16.2958 20.9301 14.1199C20.9469 13.9892 20.9377 13.8564 20.903 13.7293C20.8684 13.6021 20.8089 13.4831 20.728 13.379C20.6472 13.2749 20.5465 13.1878 20.4319 13.1228C20.3173 13.0577 20.191 13.016 20.0601 12.9999Z" fill="black"/>
</svg>
