<svg width="24" height="24" viewBox="0 0 24 24" fill="none" xmlns="http://www.w3.org/2000/svg">
<path d="M13.9998 15.4999H10.9998V14.4999C10.994 14.2751 11.0642 14.055 11.1989 13.875C11.3336 13.695 11.5251 13.5656 11.7424 13.5079C11.9597 13.4501 12.1901 13.4672 12.3965 13.5565C12.6029 13.6457 12.7731 13.802 12.8798 13.9999C13.0167 14.2263 13.2378 14.3892 13.4945 14.4529C13.7513 14.5166 14.0229 14.476 14.2498 14.3399C14.4681 14.2033 14.6253 13.9877 14.6886 13.7381C14.7519 13.4885 14.7165 13.2241 14.5898 12.9999C14.461 12.7853 14.3065 12.5871 14.1298 12.4099C13.8528 12.1246 13.5218 11.8973 13.1561 11.741C12.7905 11.5848 12.3974 11.5028 11.9998 11.4999C11.2041 11.4999 10.4411 11.816 9.87845 12.3786C9.31584 12.9412 8.99977 13.7042 8.99977 14.4999V15.6799C8.3384 15.9199 7.78241 16.3847 7.429 16.993C7.07558 17.6014 6.94723 18.3146 7.06637 19.008C7.18551 19.7014 7.54457 20.3309 8.08077 20.7864C8.61698 21.2419 9.29623 21.4944 9.99977 21.4999H13.9998C14.7954 21.4999 15.5585 21.1838 16.1211 20.6212C16.6837 20.0586 16.9998 19.2955 16.9998 18.4999C16.9998 17.7042 16.6837 16.9412 16.1211 16.3786C15.5585 15.816 14.7954 15.4999 13.9998 15.4999ZM13.9998 19.4999H9.99977C9.73455 19.4999 9.4802 19.3945 9.29266 19.207C9.10512 19.0195 8.99977 18.7651 8.99977 18.4999C8.99977 18.2347 9.10512 17.9803 9.29266 17.7928C9.4802 17.6053 9.73455 17.4999 9.99977 17.4999H13.9998C14.265 17.4999 14.5193 17.6053 14.7069 17.7928C14.8944 17.9803 14.9998 18.2347 14.9998 18.4999C14.9998 18.7651 14.8944 19.0195 14.7069 19.207C14.5193 19.3945 14.265 19.4999 13.9998 19.4999ZM18.4198 6.71989C17.8088 5.3159 16.7543 4.15097 15.4178 3.40362C14.0814 2.65627 12.5368 2.36773 11.0207 2.5822C9.50464 2.79668 8.10069 3.50235 7.02402 4.59107C5.94735 5.67979 5.25735 7.09151 5.05977 8.60989C4.22198 8.81395 3.47257 9.28326 2.92321 9.94789C2.37386 10.6125 2.05399 11.4369 2.01126 12.2981C1.96854 13.1593 2.20526 14.0113 2.68613 14.727C3.16701 15.4427 3.86629 15.9839 4.67977 16.2699C4.78348 16.3018 4.89125 16.3187 4.99977 16.3199C5.26498 16.3623 5.53619 16.2977 5.75374 16.1401C5.97128 15.9826 6.11733 15.7451 6.15977 15.4799C6.2022 15.2147 6.13754 14.9435 5.98001 14.7259C5.82248 14.5084 5.58498 14.3623 5.31977 14.3199C4.94268 14.1838 4.6152 13.9375 4.37982 13.6129C4.14444 13.2884 4.01203 12.9006 3.99977 12.4999C3.99977 11.9695 4.21048 11.4608 4.58555 11.0857C4.96063 10.7106 5.46933 10.4999 5.99977 10.4999C6.26498 10.4999 6.51934 10.3945 6.70687 10.207C6.89441 10.0195 6.99977 9.76511 6.99977 9.49989C7.00232 8.31717 7.42405 7.17365 8.19004 6.27248C8.95602 5.37131 10.0167 4.77085 11.1835 4.57777C12.3504 4.38469 13.5479 4.6115 14.5633 5.2179C15.5788 5.82431 16.3464 6.77103 16.7298 7.88989C16.7869 8.06173 16.8897 8.21483 17.0271 8.33283C17.1644 8.45083 17.3313 8.52931 17.5098 8.5599C18.1111 8.66874 18.6649 8.95863 19.0969 9.39078C19.529 9.82293 19.8188 10.3767 19.9276 10.9781C20.0363 11.5794 19.9588 12.1997 19.7054 12.7558C19.4521 13.3119 19.0349 13.7774 18.5098 14.0899C18.279 14.2225 18.1104 14.4413 18.041 14.6983C17.9716 14.9552 18.0072 15.2292 18.1398 15.4599C18.2724 15.6906 18.4912 15.8592 18.7481 15.9286C19.0051 15.998 19.279 15.9625 19.5098 15.8299C20.268 15.3898 20.8972 14.7581 21.3342 13.9981C21.7712 13.2381 22.0008 12.3766 21.9998 11.4999C21.9967 10.424 21.6467 9.37783 21.0018 8.5167C20.3568 7.65557 19.4513 7.02544 18.4198 6.71989Z" fill="black"/>
</svg>
