<svg width="24" height="24" viewBox="0 0 24 24" fill="none" xmlns="http://www.w3.org/2000/svg">
<path d="M18.4201 8.2199C17.8091 6.8159 16.7546 5.65097 15.4182 4.90362C14.0818 4.15627 12.5372 3.86773 11.0211 4.0822C9.50501 4.29668 8.10106 5.00235 7.02439 6.09107C5.94772 7.17979 5.25772 8.59151 5.06013 10.1099C4.10672 10.3382 3.27036 10.9087 2.70987 11.7131C2.14939 12.5174 1.90382 13.4996 2.0198 14.4731C2.13578 15.4466 2.60523 16.3436 3.339 16.9938C4.07277 17.6439 5.01976 18.002 6.00013 17.9999C6.26535 17.9999 6.5197 17.8945 6.70724 17.707C6.89478 17.5195 7.00013 17.2651 7.00013 16.9999C7.00013 16.7347 6.89478 16.4803 6.70724 16.2928C6.5197 16.1053 6.26535 15.9999 6.00013 15.9999C5.4697 15.9999 4.96099 15.7892 4.58592 15.4141C4.21085 15.039 4.00013 14.5303 4.00013 13.9999C4.00013 13.4695 4.21085 12.9608 4.58592 12.5857C4.96099 12.2106 5.4697 11.9999 6.00013 11.9999C6.26535 11.9999 6.5197 11.8945 6.70724 11.707C6.89478 11.5195 7.00013 11.2651 7.00013 10.9999C7.00269 9.81717 7.42442 8.67365 8.1904 7.77248C8.95639 6.87131 10.017 6.27085 11.1839 6.07777C12.3507 5.88469 13.5483 6.1115 14.5637 6.7179C15.5791 7.32431 16.3467 8.27104 16.7301 9.3899C16.7873 9.56174 16.89 9.71483 17.0274 9.83283C17.1648 9.95083 17.3316 10.0293 17.5101 10.0599C18.1762 10.1858 18.78 10.5335 19.2232 11.0464C19.6663 11.5594 19.9227 12.2073 19.9505 12.8845C19.9784 13.5618 19.776 14.2286 19.3764 14.7761C18.9769 15.3237 18.4036 15.7198 17.7501 15.8999C17.4929 15.9662 17.2725 16.132 17.1375 16.3608C17.0024 16.5896 16.9638 16.8626 17.0301 17.1199C17.0964 17.3772 17.2622 17.5975 17.491 17.7326C17.7198 17.8676 17.9929 17.9062 18.2501 17.8399C19.3025 17.5618 20.2354 16.9479 20.9071 16.0914C21.5789 15.2348 21.9527 14.1825 21.972 13.0942C21.9912 12.0058 21.6547 10.9409 21.0137 10.0612C20.3727 9.18149 19.462 8.53499 18.4201 8.2199ZM12.7101 10.2899C12.615 10.1989 12.5029 10.1275 12.3801 10.0799C12.1367 9.97988 11.8636 9.97988 11.6201 10.0799C11.4974 10.1275 11.3852 10.1989 11.2901 10.2899L8.29013 13.2899C8.10183 13.4782 7.99604 13.7336 7.99604 13.9999C7.99604 14.2662 8.10183 14.5216 8.29013 14.7099C8.47844 14.8982 8.73383 15.004 9.00013 15.004C9.26644 15.004 9.52183 14.8982 9.71013 14.7099L11.0001 13.4099V18.9999C11.0001 19.2651 11.1055 19.5195 11.293 19.707C11.4806 19.8945 11.7349 19.9999 12.0001 19.9999C12.2654 19.9999 12.5197 19.8945 12.7072 19.707C12.8948 19.5195 13.0001 19.2651 13.0001 18.9999V13.4099L14.2901 14.7099C14.3831 14.8036 14.4937 14.878 14.6156 14.9288C14.7374 14.9796 14.8681 15.0057 15.0001 15.0057C15.1321 15.0057 15.2629 14.9796 15.3847 14.9288C15.5066 14.878 15.6172 14.8036 15.7101 14.7099C15.8039 14.6169 15.8783 14.5063 15.929 14.3845C15.9798 14.2626 16.0059 14.1319 16.0059 13.9999C16.0059 13.8679 15.9798 13.7372 15.929 13.6153C15.8783 13.4935 15.8039 13.3829 15.7101 13.2899L12.7101 10.2899Z" fill="black"/>
</svg>
