<svg width="24" height="24" viewBox="0 0 24 24" fill="none" xmlns="http://www.w3.org/2000/svg">
<path d="M21.7002 7.99994C21.5787 7.87996 21.4285 7.79308 21.264 7.74757C21.0995 7.70206 20.926 7.69943 20.7602 7.73994C20.5471 7.79024 20.3291 7.81707 20.1102 7.81994C19.3145 7.81994 18.5514 7.50387 17.9888 6.94126C17.4262 6.37865 17.1102 5.61559 17.1102 4.81994C17.1127 4.59768 17.1395 4.37636 17.1902 4.15994C17.2307 3.99409 17.228 3.82063 17.1825 3.65609C17.137 3.49155 17.0501 3.3414 16.9302 3.21994C16.8117 3.09809 16.6642 3.00844 16.5014 2.95945C16.3387 2.91046 16.1662 2.90374 16.0002 2.93994C15.008 3.16957 14.1095 3.69672 13.4251 4.45087C12.7406 5.20501 12.3028 6.15018 12.1702 7.15994C11.628 6.9998 11.0655 6.91896 10.5002 6.91994C9.06642 6.91732 7.67913 7.42819 6.58952 8.36005C5.4999 9.29191 4.78 10.5831 4.56016 11.9999C3.81749 12.2104 3.1646 12.6592 2.70202 13.2772C2.23945 13.8952 1.99284 14.648 2.00016 15.4199C2.00053 15.9629 2.1283 16.4981 2.37318 16.9827C2.61807 17.4673 2.97325 17.8876 3.41016 18.2099C3.51507 18.2974 3.63677 18.3624 3.76777 18.401C3.89877 18.4396 4.03629 18.4509 4.17184 18.4343C4.30739 18.4177 4.43811 18.3736 4.55594 18.3045C4.67377 18.2355 4.7762 18.143 4.85693 18.0329C4.93766 17.9227 4.99497 17.7972 5.02534 17.6641C5.0557 17.5309 5.05847 17.393 5.03347 17.2587C5.00848 17.1244 4.95625 16.9967 4.88001 16.8834C4.80376 16.7701 4.70512 16.6737 4.59016 16.5999C4.4061 16.4634 4.25677 16.2854 4.15428 16.0804C4.05178 15.8754 3.99898 15.6491 4.00016 15.4199C4.00016 15.0221 4.15819 14.6406 4.4395 14.3593C4.7208 14.078 5.10233 13.9199 5.50016 13.9199C5.76538 13.9199 6.01973 13.8146 6.20726 13.627C6.3948 13.4395 6.50016 13.1852 6.50016 12.9199C6.50199 12.2018 6.69715 11.4973 7.06514 10.8806C7.43313 10.2638 7.96038 9.75756 8.59153 9.41487C9.22268 9.07219 9.93445 8.90575 10.6521 8.93304C11.3698 8.96032 12.0668 9.18032 12.6702 9.56994C13.4022 10.0425 13.9549 10.7466 14.2402 11.5699C14.2988 11.7399 14.4022 11.8909 14.5395 12.0071C14.6768 12.1232 14.8428 12.2002 15.0202 12.2299C15.5173 12.3119 15.9745 12.5529 16.3232 12.9166C16.6718 13.2804 16.8932 13.7474 16.954 14.2476C17.0148 14.7478 16.9119 15.2542 16.6606 15.6909C16.4093 16.1277 16.0232 16.4712 15.5602 16.6699C15.4391 16.7221 15.3295 16.7977 15.2377 16.8925C15.146 16.9872 15.0739 17.0991 15.0255 17.2218C14.9772 17.3444 14.9536 17.4755 14.9561 17.6073C14.9586 17.7391 14.9872 17.8692 15.0402 17.9899C15.1182 18.1688 15.2469 18.3209 15.4104 18.4276C15.5739 18.5342 15.765 18.5906 15.9602 18.5899C16.0983 18.5879 16.2345 18.5572 16.3602 18.4999C17.1376 18.1611 17.7985 17.6014 18.2607 16.8903C18.7229 16.1792 18.9661 15.348 18.9602 14.4999C18.9641 13.8031 18.7957 13.1161 18.4702 12.4999C19.3251 12.2738 20.1037 11.8223 20.7247 11.1926C21.3456 10.5629 21.7861 9.77801 22.0002 8.91994C22.0321 8.75373 22.0213 8.58214 21.9689 8.42123C21.9164 8.26033 21.8239 8.11537 21.7002 7.99994ZM17.1102 10.8199C16.9704 10.8308 16.8299 10.8308 16.6902 10.8199C16.4594 10.6963 16.2185 10.5926 15.9702 10.5099C15.5635 9.60979 14.9378 8.82591 14.1502 8.22994C14.1502 8.10994 14.1502 7.97994 14.1502 7.85994C14.1501 7.42661 14.244 6.99843 14.4252 6.60484C14.6065 6.21125 14.8709 5.8616 15.2002 5.57994C15.357 6.64498 15.8534 7.63096 16.6155 8.39128C17.3776 9.15159 18.3647 9.64564 19.4302 9.79994C19.1404 10.1271 18.7826 10.387 18.3819 10.5615C17.9811 10.736 17.5471 10.8207 17.1102 10.8099V10.8199ZM12.5002 16.9199H11.7302L12.1202 16.2499C12.2528 16.0192 12.2883 15.7452 12.2189 15.4883C12.1495 15.2314 11.9809 15.0125 11.7502 14.8799C11.5194 14.7473 11.2455 14.7118 10.9885 14.7812C10.7316 14.8506 10.5128 15.0192 10.3802 15.2499L10.0002 15.9199L9.62016 15.2499C9.48755 15.0192 9.26871 14.8506 9.01179 14.7812C8.75486 14.7118 8.4809 14.7473 8.25016 14.8799C8.01942 15.0125 7.85081 15.2314 7.78142 15.4883C7.71203 15.7452 7.74755 16.0192 7.88016 16.2499L8.27016 16.9199H7.50016C7.23494 16.9199 6.98059 17.0253 6.79305 17.2128C6.60552 17.4004 6.50016 17.6547 6.50016 17.9199C6.50016 18.1852 6.60552 18.4395 6.79305 18.627C6.98059 18.8146 7.23494 18.9199 7.50016 18.9199H8.27016L7.88016 19.5799C7.74755 19.8107 7.71203 20.0846 7.78142 20.3416C7.85081 20.5985 8.01942 20.8173 8.25016 20.9499C8.4809 21.0825 8.75486 21.1181 9.01179 21.0487C9.26871 20.9793 9.48755 20.8107 9.62016 20.5799L10.0002 19.9199L10.3802 20.5799C10.4458 20.6942 10.5333 20.7944 10.6377 20.8748C10.7421 20.9552 10.8613 21.0143 10.9885 21.0487C11.1157 21.083 11.2485 21.092 11.3792 21.0751C11.5098 21.0581 11.6359 21.0156 11.7502 20.9499C11.8644 20.8843 11.9646 20.7968 12.045 20.6924C12.1255 20.588 12.1845 20.4688 12.2189 20.3416C12.2533 20.2143 12.2622 20.0816 12.2453 19.9509C12.2283 19.8203 12.1858 19.6942 12.1202 19.5799L11.7302 18.9199H12.5002C12.7654 18.9199 13.0197 18.8146 13.2073 18.627C13.3948 18.4395 13.5002 18.1852 13.5002 17.9199C13.5002 17.6547 13.3948 17.4004 13.2073 17.2128C13.0197 17.0253 12.7654 16.9199 12.5002 16.9199Z" fill="black"/>
</svg>
