<svg width="24" height="24" viewBox="0 0 24 24" fill="none" xmlns="http://www.w3.org/2000/svg">
<path d="M18.4198 7.21989C17.8088 5.8159 16.7543 4.65097 15.4178 3.90362C14.0814 3.15627 12.5368 2.86773 11.0207 3.0822C9.50464 3.29668 8.10069 4.00235 7.02402 5.09107C5.94735 6.17979 5.25735 7.59151 5.05977 9.10989C4.22198 9.31395 3.47257 9.78326 2.92321 10.4479C2.37386 11.1125 2.05399 11.9369 2.01126 12.7981C1.96854 13.6593 2.20526 14.5113 2.68613 15.227C3.16701 15.9427 3.86629 16.4839 4.67977 16.7699C4.78348 16.8018 4.89125 16.8187 4.99977 16.8199C5.26498 16.8623 5.53619 16.7977 5.75374 16.6401C5.97128 16.4826 6.11733 16.2451 6.15977 15.9799C6.2022 15.7147 6.13754 15.4435 5.98001 15.2259C5.82248 15.0084 5.58498 14.8623 5.31977 14.8199C4.94268 14.6838 4.6152 14.4375 4.37982 14.1129C4.14444 13.7884 4.01203 13.4006 3.99977 12.9999C3.99977 12.4695 4.21048 11.9608 4.58555 11.5857C4.96063 11.2106 5.46933 10.9999 5.99977 10.9999C6.26498 10.9999 6.51934 10.8945 6.70687 10.707C6.89441 10.5195 6.99977 10.2651 6.99977 9.99989C7.00232 8.81717 7.42405 7.67365 8.19004 6.77248C8.95602 5.87131 10.0167 5.27085 11.1835 5.07777C12.3504 4.88469 13.5479 5.1115 14.5633 5.7179C15.5788 6.32431 16.3464 7.27103 16.7298 8.38989C16.7869 8.56173 16.8897 8.71483 17.0271 8.83283C17.1644 8.95083 17.3313 9.02931 17.5098 9.0599C18.1111 9.16874 18.6649 9.45863 19.0969 9.89078C19.529 10.3229 19.8188 10.8767 19.9276 11.4781C20.0363 12.0794 19.9588 12.6997 19.7054 13.2558C19.4521 13.8119 19.0349 14.2774 18.5098 14.5899C18.279 14.7225 18.1104 14.9413 18.041 15.1983C17.9716 15.4552 18.0072 15.7292 18.1398 15.9599C18.2724 16.1906 18.4912 16.3592 18.7481 16.4286C19.0051 16.498 19.279 16.4625 19.5098 16.3299C20.268 15.8898 20.8972 15.2581 21.3342 14.4981C21.7712 13.7381 22.0008 12.8766 21.9998 11.9999C21.9967 10.924 21.6467 9.87783 21.0018 9.0167C20.3568 8.15557 19.4513 7.52544 18.4198 7.21989ZM14.7898 11.6599C14.4107 11.7424 14.0185 11.7431 13.6391 11.662C13.2598 11.581 12.902 11.42 12.5898 11.1899C12.4185 11.0647 12.2119 10.9973 11.9998 10.9973C11.7877 10.9973 11.581 11.0647 11.4098 11.1899C11.0978 11.4206 10.7401 11.5819 10.3606 11.663C9.98118 11.7441 9.58878 11.743 9.20977 11.6599C9.06371 11.6284 8.91243 11.6299 8.76707 11.6646C8.6217 11.6992 8.48594 11.7659 8.36977 11.8599C8.25505 11.9529 8.16238 12.0703 8.0984 12.2034C8.03443 12.3365 8.00074 12.4822 7.99977 12.6299V15.9999C7.99899 16.717 8.16479 17.4245 8.48409 18.0666C8.8034 18.7086 9.26749 19.2678 9.83977 19.6999L11.4098 20.8499C11.581 20.975 11.7877 21.0425 11.9998 21.0425C12.2119 21.0425 12.4185 20.975 12.5898 20.8499L14.1598 19.6899C14.7324 19.2604 15.1969 18.7032 15.5164 18.0626C15.8358 17.422 16.0013 16.7157 15.9998 15.9999V12.6299C15.9988 12.4822 15.9651 12.3365 15.9011 12.2034C15.8372 12.0703 15.7445 11.9529 15.6298 11.8599C15.5136 11.7659 15.3778 11.6992 15.2325 11.6646C15.0871 11.6299 14.9358 11.6284 14.7898 11.6599ZM13.9998 15.9999C13.991 16.3864 13.8967 16.7662 13.7238 17.1119C13.551 17.4577 13.3037 17.761 12.9998 17.9999L11.9998 18.7199L10.9998 17.9999C10.6959 17.761 10.4486 17.4577 10.2757 17.1119C10.1028 16.7662 10.0086 16.3864 9.99977 15.9999V13.7199C10.6992 13.6885 11.3826 13.5005 11.9998 13.1699C12.6169 13.5005 13.3004 13.6885 13.9998 13.7199V15.9999Z" fill="black"/>
</svg>
