<svg width="24" height="24" viewBox="0 0 24 24" fill="none" xmlns="http://www.w3.org/2000/svg">
<path d="M14.2901 17.2899L13.0001 18.5899V12.9999C13.0001 12.7347 12.8948 12.4803 12.7072 12.2928C12.5197 12.1053 12.2654 11.9999 12.0001 11.9999C11.7349 11.9999 11.4806 12.1053 11.293 12.2928C11.1055 12.4803 11.0001 12.7347 11.0001 12.9999V18.5899L9.71013 17.2899C9.6169 17.1967 9.50621 17.1227 9.38438 17.0722C9.26256 17.0218 9.13199 16.9958 9.00013 16.9958C8.86828 16.9958 8.73771 17.0218 8.61588 17.0722C8.49406 17.1227 8.38337 17.1967 8.29013 17.2899C8.1969 17.3831 8.12293 17.4938 8.07247 17.6156C8.02201 17.7375 7.99604 17.868 7.99604 17.9999C7.99604 18.1318 8.02201 18.2623 8.07247 18.3841C8.12293 18.506 8.1969 18.6167 8.29013 18.7099L11.2901 21.7099C11.3852 21.8009 11.4974 21.8723 11.6201 21.9199C11.7398 21.9728 11.8693 22.0001 12.0001 22.0001C12.131 22.0001 12.2604 21.9728 12.3801 21.9199C12.5029 21.8723 12.615 21.8009 12.7101 21.7099L15.7101 18.7099C15.8984 18.5216 16.0042 18.2662 16.0042 17.9999C16.0042 17.7336 15.8984 17.4782 15.7101 17.2899C15.5218 17.1016 15.2664 16.9958 15.0001 16.9958C14.7338 16.9958 14.4784 17.1016 14.2901 17.2899ZM18.4201 6.21989C17.8091 4.8159 16.7546 3.65097 15.4182 2.90362C14.0818 2.15627 12.5372 1.86773 11.0211 2.0822C9.50501 2.29668 8.10106 3.00235 7.02439 4.09107C5.94772 5.17979 5.25772 6.59151 5.06013 8.10989C4.10672 8.33822 3.27036 8.90873 2.70987 9.71308C2.14939 10.5174 1.90382 11.4996 2.0198 12.4731C2.13578 13.4466 2.60523 14.3436 3.339 14.9938C4.07277 15.6439 5.01976 16.002 6.00013 15.9999C6.26535 15.9999 6.5197 15.8945 6.70724 15.707C6.89478 15.5195 7.00013 15.2651 7.00013 14.9999C7.00013 14.7347 6.89478 14.4803 6.70724 14.2928C6.5197 14.1053 6.26535 13.9999 6.00013 13.9999C5.4697 13.9999 4.96099 13.7892 4.58592 13.4141C4.21085 13.039 4.00013 12.5303 4.00013 11.9999C4.00013 11.4695 4.21085 10.9608 4.58592 10.5857C4.96099 10.2106 5.4697 9.99989 6.00013 9.99989C6.26535 9.99989 6.5197 9.89454 6.70724 9.707C6.89478 9.51946 7.00013 9.26511 7.00013 8.99989C7.00269 7.81717 7.42442 6.67365 8.1904 5.77248C8.95639 4.87131 10.017 4.27085 11.1839 4.07777C12.3507 3.88469 13.5483 4.1115 14.5637 4.7179C15.5791 5.32431 16.3467 6.27103 16.7301 7.38989C16.7873 7.56173 16.89 7.71483 17.0274 7.83283C17.1648 7.95083 17.3316 8.02931 17.5101 8.0599C18.1762 8.18577 18.78 8.5335 19.2232 9.04643C19.6663 9.55936 19.9227 10.2073 19.9505 10.8845C19.9784 11.5618 19.776 12.2286 19.3764 12.7761C18.9769 13.3237 18.4036 13.7198 17.7501 13.8999C17.6228 13.9327 17.5031 13.9903 17.398 14.0694C17.2928 14.1485 17.2043 14.2475 17.1375 14.3608C17.0706 14.4741 17.0267 14.5994 17.0083 14.7297C16.9899 14.8599 16.9973 14.9925 17.0301 15.1199C17.063 15.2473 17.1206 15.3669 17.1996 15.4721C17.2787 15.5772 17.3777 15.6657 17.491 15.7326C17.6043 15.7994 17.7297 15.8433 17.8599 15.8617C17.9902 15.8801 18.1228 15.8727 18.2501 15.8399C19.3025 15.5618 20.2354 14.9479 20.9071 14.0914C21.5789 13.2348 21.9527 12.1825 21.972 11.0942C21.9912 10.0058 21.6547 8.94094 21.0137 8.06121C20.3727 7.18149 19.462 6.53499 18.4201 6.21989Z" fill="black"/>
</svg>
