<svg width="24" height="24" viewBox="0 0 24 24" fill="none" xmlns="http://www.w3.org/2000/svg">
<path d="M18.4201 8.2199C17.8091 6.8159 16.7546 5.65097 15.4182 4.90362C14.0818 4.15627 12.5372 3.86773 11.0211 4.0822C9.50501 4.29668 8.10106 5.00235 7.02439 6.09107C5.94772 7.17979 5.25772 8.59151 5.06013 10.1099C4.10672 10.3382 3.27036 10.9087 2.70987 11.7131C2.14939 12.5174 1.90382 13.4996 2.0198 14.4731C2.13578 15.4466 2.60523 16.3436 3.339 16.9938C4.07277 17.6439 5.01976 18.002 6.00013 17.9999H8.00013C8.26535 17.9999 8.5197 17.8945 8.70724 17.707C8.89478 17.5195 9.00013 17.2651 9.00013 16.9999C9.00013 16.7347 8.89478 16.4803 8.70724 16.2928C8.5197 16.1053 8.26535 15.9999 8.00013 15.9999H6.00013C5.4697 15.9999 4.96099 15.7892 4.58592 15.4141C4.21085 15.039 4.00013 14.5303 4.00013 13.9999C4.00013 13.4695 4.21085 12.9608 4.58592 12.5857C4.96099 12.2106 5.4697 11.9999 6.00013 11.9999C6.26535 11.9999 6.5197 11.8945 6.70724 11.707C6.89478 11.5195 7.00013 11.2651 7.00013 10.9999C7.00269 9.81717 7.42442 8.67365 8.1904 7.77248C8.95639 6.87131 10.017 6.27085 11.1839 6.07777C12.3507 5.88469 13.5483 6.1115 14.5637 6.7179C15.5791 7.32431 16.3467 8.27104 16.7301 9.3899C16.7873 9.56174 16.89 9.71483 17.0274 9.83283C17.1648 9.95083 17.3316 10.0293 17.5101 10.0599C18.2043 10.1796 18.8342 10.5398 19.2895 11.0774C19.7447 11.6149 19.9963 12.2955 20.0001 12.9999C20.0001 13.7955 19.6841 14.5586 19.1215 15.1212C18.5588 15.6838 17.7958 15.9999 17.0001 15.9999C16.7349 15.9999 16.4806 16.1053 16.293 16.2928C16.1055 16.4803 16.0001 16.7347 16.0001 16.9999C16.0001 17.2651 16.1055 17.5195 16.293 17.707C16.4806 17.8945 16.7349 17.9999 17.0001 17.9999C18.1938 17.9889 19.344 17.5512 20.2431 16.766C21.1421 15.9808 21.7306 14.8998 21.9021 13.7185C22.0736 12.5373 21.8169 11.3336 21.1783 10.3251C20.5397 9.31665 19.5613 8.56991 18.4201 8.2199ZM12.9201 18.6199C12.9002 18.5585 12.8697 18.5009 12.8301 18.4499L12.7101 18.2899C12.6129 18.2016 12.5013 18.1305 12.3801 18.0799C12.198 18.0033 11.9973 17.9824 11.8033 18.0198C11.6093 18.0571 11.4308 18.1511 11.2901 18.2899L11.1701 18.4499C11.1306 18.5009 11.1001 18.5585 11.0801 18.6199C11.0513 18.6766 11.0311 18.7372 11.0201 18.7999C11.0157 18.8665 11.0157 18.9333 11.0201 18.9999C11.0152 19.0631 11.0152 19.1267 11.0201 19.1899C11.0294 19.2561 11.0497 19.3203 11.0801 19.3799C11.1001 19.4413 11.1306 19.4988 11.1701 19.5499L11.2901 19.7099C11.4818 19.8926 11.7354 19.9962 12.0001 19.9999C12.1308 19.9983 12.2599 19.9711 12.3801 19.9199C12.5013 19.8693 12.6129 19.7982 12.7101 19.7099L12.8301 19.5499C12.8697 19.4988 12.9002 19.4413 12.9201 19.3799C12.9506 19.3203 12.9709 19.2561 12.9801 19.1899C12.9917 19.1272 12.9984 19.0637 13.0001 18.9999C13.0046 18.9333 13.0046 18.8665 13.0001 18.7999C12.9829 18.7361 12.9559 18.6754 12.9201 18.6199ZM12.0001 10.9999C11.4732 10.9996 10.9555 11.138 10.499 11.4013C10.0426 11.6647 9.6636 12.0436 9.40013 12.4999C9.33401 12.614 9.29113 12.7401 9.27395 12.8709C9.25676 13.0017 9.26562 13.1346 9.30001 13.2619C9.3344 13.3892 9.39365 13.5085 9.47433 13.6129C9.55502 13.7172 9.65555 13.8046 9.77013 13.8699C9.99975 14.0003 10.2716 14.0345 10.5264 13.9652C10.7812 13.8959 10.9982 13.7286 11.1301 13.4999C11.2182 13.3473 11.3451 13.2207 11.4979 13.1329C11.6507 13.0451 11.8239 12.9992 12.0001 12.9999C12.2654 12.9999 12.5197 13.1053 12.7072 13.2928C12.8948 13.4803 13.0001 13.7347 13.0001 13.9999C13.0001 14.2651 12.8948 14.5195 12.7072 14.707C12.5197 14.8945 12.2654 14.9999 12.0001 14.9999C11.7349 14.9999 11.4806 15.1053 11.293 15.2928C11.1055 15.4803 11.0001 15.7347 11.0001 15.9999C11.0001 16.2651 11.1055 16.5195 11.293 16.707C11.4806 16.8945 11.7349 16.9999 12.0001 16.9999C12.7958 16.9999 13.5588 16.6838 14.1215 16.1212C14.6841 15.5586 15.0001 14.7955 15.0001 13.9999C15.0001 13.2042 14.6841 12.4412 14.1215 11.8786C13.5588 11.316 12.7958 10.9999 12.0001 10.9999Z" fill="black"/>
</svg>
