<svg width="24" height="24" viewBox="0 0 24 24" fill="none" xmlns="http://www.w3.org/2000/svg">
<path d="M8.50017 5.93991C9.56754 5.33516 10.7734 5.01729 12.0002 5.01729C13.227 5.01729 14.4328 5.33516 15.5002 5.93991C15.6143 6.00603 15.7404 6.04892 15.8712 6.0661C16.0019 6.08329 16.1348 6.07443 16.2622 6.04004C16.3895 6.00564 16.5088 5.9464 16.6131 5.86572C16.7175 5.78503 16.8048 5.6845 16.8702 5.56991C17.0005 5.3403 17.0348 5.06844 16.9655 4.81365C16.8962 4.55886 16.7289 4.34183 16.5002 4.20991C15.1275 3.43346 13.5772 3.02539 12.0002 3.02539C10.4231 3.02539 8.87286 3.43346 7.50017 4.20991C7.27144 4.34183 7.10417 4.55886 7.03485 4.81365C6.96553 5.06844 6.9998 5.3403 7.13017 5.56991C7.1955 5.6845 7.28286 5.78503 7.3872 5.86572C7.49155 5.9464 7.61083 6.00564 7.73817 6.04004C7.86551 6.07443 7.99839 6.08329 8.12917 6.0661C8.25995 6.04892 8.38604 6.00603 8.50017 5.93991ZM18.4202 11.2099C18.3163 10.9654 18.196 10.7282 18.0602 10.4999C17.9915 10.3873 17.9013 10.2894 17.7947 10.2118C17.688 10.1342 17.5671 10.0784 17.4388 10.0478C17.3106 10.0171 17.1775 10.0121 17.0473 10.0331C16.9171 10.054 16.7923 10.1005 16.6802 10.1699C16.4555 10.3085 16.2947 10.5303 16.2329 10.7869C16.171 11.0436 16.2132 11.3142 16.3502 11.5399C16.5048 11.8064 16.6321 12.0878 16.7302 12.3799C16.7873 12.5518 16.8901 12.7048 17.0275 12.8228C17.1648 12.9408 17.3317 13.0193 17.5102 13.0499C18.206 13.17 18.8372 13.5316 19.2927 14.0712C19.7482 14.6108 19.9987 15.2938 20.0002 15.9999C20.0002 16.7956 19.6841 17.5586 19.1215 18.1212C18.5589 18.6838 17.7958 18.9999 17.0002 18.9999H5.66017C5.25219 18.9371 4.87363 18.7496 4.57642 18.4632C4.27921 18.1767 4.07793 17.8053 4.00017 17.3999C3.9401 17.106 3.94694 16.8023 4.02018 16.5113C4.09341 16.2204 4.23117 15.9496 4.42324 15.7191C4.61531 15.4886 4.85677 15.3043 5.12975 15.1798C5.40272 15.0553 5.70021 14.9938 6.00017 14.9999C6.26539 14.9999 6.51974 14.8946 6.70728 14.707C6.89481 14.5195 7.00017 14.2651 7.00017 13.9999C6.99816 13.1251 7.22944 12.2656 7.67017 11.5099C7.73629 11.3958 7.77918 11.2697 7.79636 11.1389C7.81354 11.0081 7.80468 10.8753 7.77029 10.7479C7.7359 10.6206 7.67666 10.5013 7.59597 10.3969C7.51529 10.2926 7.41476 10.2052 7.30017 10.1399C7.07055 10.0095 6.79869 9.97528 6.54391 10.0446C6.28912 10.1139 6.07209 10.2812 5.94017 10.5099C5.47186 11.3072 5.17233 12.1921 5.06017 13.1099C4.22581 13.3131 3.479 13.7794 2.93017 14.4399C2.46338 14.9881 2.15319 15.6521 2.03234 16.3618C1.91149 17.0716 1.98445 17.8008 2.24353 18.4726C2.5026 19.1444 2.93819 19.7337 3.50434 20.1786C4.07048 20.6234 4.74619 20.9071 5.46017 20.9999H5.59017H17.0002C18.1995 20.9966 19.3577 20.5623 20.2636 19.7762C21.1694 18.9901 21.7625 17.9046 21.9346 16.7177C22.1068 15.5307 21.8465 14.3214 21.2014 13.3104C20.5562 12.2993 19.5692 11.5538 18.4202 11.2099ZM14.8702 8.99991C14.8702 8.99991 14.8702 8.99991 14.8702 8.93991C14.922 8.87917 14.9657 8.81194 15.0002 8.73991C15.0949 8.49321 15.0881 8.21904 14.9813 7.97732C14.8745 7.7356 14.6764 7.54599 14.4302 7.44991C13.8709 7.24226 13.2851 7.11434 12.6902 7.06991C12.5902 7.06991 12.4902 7.06991 12.3902 7.06991C12.1205 7.0499 11.8498 7.0499 11.5802 7.06991C11.4769 7.06457 11.3734 7.06457 11.2702 7.06991C10.6752 7.11434 10.0895 7.24226 9.53017 7.44991C9.29123 7.55357 9.10216 7.74636 9.00318 7.98728C8.9042 8.22819 8.90312 8.49822 9.00017 8.73991C9.03424 8.8068 9.07441 8.87041 9.12017 8.92991C9.11686 8.96651 9.11686 9.00332 9.12017 9.03991C9.18633 9.15367 9.2743 9.25324 9.37902 9.33293C9.48375 9.41262 9.60317 9.47086 9.73044 9.5043C9.85772 9.53775 9.99034 9.54574 10.1207 9.52783C10.2511 9.50992 10.3766 9.46645 10.4902 9.39991C10.9488 9.1442 11.4651 9.00997 11.9902 9.00997C12.5152 9.00997 13.0316 9.1442 13.4902 9.39991C13.6065 9.46644 13.7351 9.50889 13.8682 9.52476C14.0013 9.54062 14.1362 9.52957 14.2649 9.49225C14.3936 9.45494 14.5136 9.39213 14.6175 9.30755C14.7215 9.22297 14.8074 9.11835 14.8702 8.99991ZM11.0002 11.9999C11.0002 12.1977 11.0588 12.391 11.1687 12.5555C11.2786 12.7199 11.4348 12.8481 11.6175 12.9238C11.8002 12.9995 12.0013 13.0193 12.1953 12.9807C12.3892 12.9421 12.5674 12.8469 12.7073 12.707C12.8471 12.5672 12.9424 12.389 12.981 12.195C13.0195 12.001 12.9997 11.8 12.9241 11.6172C12.8484 11.4345 12.7202 11.2783 12.5557 11.1684C12.3913 11.0586 12.198 10.9999 12.0002 10.9999C11.735 10.9999 11.4806 11.1053 11.2931 11.2928C11.1055 11.4803 11.0002 11.7347 11.0002 11.9999Z" fill="black"/>
</svg>
