<svg width="24" height="24" viewBox="0 0 24 24" fill="none" xmlns="http://www.w3.org/2000/svg">
<path d="M14.4998 14.9999C14.8953 14.9999 15.282 14.8826 15.6109 14.6628C15.9398 14.4431 16.1962 14.1307 16.3475 13.7653C16.4989 13.3998 16.5385 12.9977 16.4613 12.6097C16.3842 12.2218 16.1937 11.8654 15.914 11.5857C15.6343 11.306 15.2779 11.1155 14.8899 11.0383C14.502 10.9612 14.0999 11.0008 13.7344 11.1521C13.3689 11.3035 13.0566 11.5599 12.8368 11.8888C12.6171 12.2177 12.4998 12.6043 12.4998 12.9999L10.5998 13.8699C10.2732 13.6547 9.89081 13.54 9.49977 13.5399C8.96933 13.5399 8.46063 13.7506 8.08555 14.1257C7.71048 14.5008 7.49977 15.0095 7.49977 15.5399C7.49977 16.0703 7.71048 16.579 8.08555 16.9541C8.46063 17.3292 8.96933 17.5399 9.49977 17.5399C9.82193 17.54 10.1387 17.4574 10.4198 17.2999L12.5198 18.2999C12.5704 18.7369 12.7637 19.1451 13.0698 19.4611C13.3758 19.7772 13.7776 19.9835 14.2127 20.0481C14.6479 20.1127 15.0923 20.032 15.477 19.8185C15.8616 19.6051 16.1652 19.2707 16.3406 18.8672C16.516 18.4638 16.5535 18.0137 16.4473 17.5868C16.341 17.1598 16.097 16.7799 15.7529 16.5057C15.4089 16.2315 14.984 16.0784 14.5441 16.0701C14.1042 16.0618 13.6739 16.1988 13.3198 16.4599L11.5698 15.6599L13.4798 14.7799C13.7943 14.9422 14.1463 15.0181 14.4998 14.9999ZM18.4198 7.21989C17.8088 5.8159 16.7543 4.65097 15.4178 3.90362C14.0814 3.15627 12.5368 2.86773 11.0207 3.0822C9.50464 3.29668 8.10069 4.00235 7.02402 5.09107C5.94735 6.17979 5.25735 7.59151 5.05977 9.10989C4.22198 9.31395 3.47257 9.78326 2.92321 10.4479C2.37386 11.1125 2.05399 11.9369 2.01126 12.7981C1.96854 13.6593 2.20526 14.5113 2.68613 15.227C3.16701 15.9427 3.86629 16.4839 4.67977 16.7699C4.78348 16.8018 4.89125 16.8187 4.99977 16.8199C5.26498 16.8623 5.53619 16.7977 5.75374 16.6401C5.97128 16.4826 6.11733 16.2451 6.15977 15.9799C6.2022 15.7147 6.13754 15.4435 5.98001 15.2259C5.82248 15.0084 5.58498 14.8623 5.31977 14.8199C4.94268 14.6838 4.6152 14.4375 4.37982 14.1129C4.14444 13.7884 4.01203 13.4006 3.99977 12.9999C3.99977 12.4695 4.21048 11.9608 4.58555 11.5857C4.96063 11.2106 5.46933 10.9999 5.99977 10.9999C6.26498 10.9999 6.51934 10.8945 6.70687 10.707C6.89441 10.5195 6.99977 10.2651 6.99977 9.99989C7.00232 8.81717 7.42405 7.67365 8.19004 6.77248C8.95602 5.87131 10.0167 5.27085 11.1835 5.07777C12.3504 4.88469 13.5479 5.1115 14.5633 5.7179C15.5788 6.32431 16.3464 7.27103 16.7298 8.38989C16.7869 8.56173 16.8897 8.71483 17.0271 8.83283C17.1644 8.95083 17.3313 9.02931 17.5098 9.0599C18.1111 9.16874 18.6649 9.45863 19.0969 9.89078C19.529 10.3229 19.8188 10.8767 19.9276 11.4781C20.0363 12.0794 19.9588 12.6997 19.7054 13.2558C19.4521 13.8119 19.0349 14.2774 18.5098 14.5899C18.279 14.7225 18.1104 14.9413 18.041 15.1983C17.9716 15.4552 18.0072 15.7292 18.1398 15.9599C18.2724 16.1906 18.4912 16.3592 18.7481 16.4286C19.0051 16.498 19.279 16.4625 19.5098 16.3299C20.268 15.8898 20.8972 15.2581 21.3342 14.4981C21.7712 13.7381 22.0008 12.8766 21.9998 11.9999C21.9967 10.924 21.6467 9.87783 21.0018 9.0167C20.3568 8.15557 19.4513 7.52544 18.4198 7.21989Z" fill="black"/>
</svg>
