<svg width="24" height="24" viewBox="0 0 24 24" fill="none" xmlns="http://www.w3.org/2000/svg">
<path d="M11.2901 12.2899C11.1491 12.4298 11.0529 12.6085 11.0139 12.8032C10.9748 12.998 10.9946 13.1999 11.0708 13.3834C11.1469 13.5668 11.276 13.7234 11.4415 13.8332C11.607 13.943 11.8015 14.001 12.0001 13.9999H12.1901C12.2564 13.9906 12.3206 13.9703 12.3801 13.9399C12.4416 13.9199 12.4991 13.8895 12.5501 13.8499L12.7001 13.7299C12.7939 13.6369 12.8683 13.5263 12.919 13.4045C12.9698 13.2826 12.9959 13.1519 12.9959 13.0199C12.9959 12.8879 12.9698 12.7572 12.919 12.6353C12.8683 12.5135 12.7939 12.4029 12.7001 12.3099C12.5154 12.121 12.2635 12.0128 11.9993 12.0091C11.7351 12.0053 11.4801 12.1063 11.2901 12.2899ZM12.0001 14.9999C11.7349 14.9999 11.4806 15.1053 11.293 15.2928C11.1055 15.4803 11.0001 15.7347 11.0001 15.9999V18.9999C11.0001 19.2651 11.1055 19.5195 11.293 19.707C11.4806 19.8945 11.7349 19.9999 12.0001 19.9999C12.2654 19.9999 12.5197 19.8945 12.7072 19.707C12.8948 19.5195 13.0001 19.2651 13.0001 18.9999V15.9999C13.0001 15.7347 12.8948 15.4803 12.7072 15.2928C12.5197 15.1053 12.2654 14.9999 12.0001 14.9999ZM18.4201 8.2199C17.8091 6.8159 16.7546 5.65097 15.4182 4.90362C14.0818 4.15627 12.5372 3.86773 11.0211 4.0822C9.50501 4.29668 8.10106 5.00235 7.02439 6.09107C5.94772 7.17979 5.25772 8.59151 5.06013 10.1099C4.10672 10.3382 3.27036 10.9087 2.70987 11.7131C2.14939 12.5174 1.90382 13.4996 2.0198 14.4731C2.13578 15.4466 2.60523 16.3436 3.339 16.9938C4.07277 17.6439 5.01976 18.002 6.00013 17.9999H8.00013C8.26535 17.9999 8.5197 17.8945 8.70724 17.707C8.89478 17.5195 9.00013 17.2651 9.00013 16.9999C9.00013 16.7347 8.89478 16.4803 8.70724 16.2928C8.5197 16.1053 8.26535 15.9999 8.00013 15.9999H6.00013C5.4697 15.9999 4.96099 15.7892 4.58592 15.4141C4.21085 15.039 4.00013 14.5303 4.00013 13.9999C4.00013 13.4695 4.21085 12.9608 4.58592 12.5857C4.96099 12.2106 5.4697 11.9999 6.00013 11.9999C6.26535 11.9999 6.5197 11.8945 6.70724 11.707C6.89478 11.5195 7.00013 11.2651 7.00013 10.9999C7.00269 9.81717 7.42442 8.67365 8.1904 7.77248C8.95639 6.87131 10.017 6.27085 11.1839 6.07777C12.3507 5.88469 13.5483 6.1115 14.5637 6.7179C15.5791 7.32431 16.3467 8.27104 16.7301 9.3899C16.7873 9.56174 16.89 9.71483 17.0274 9.83283C17.1648 9.95083 17.3316 10.0293 17.5101 10.0599C18.2043 10.1796 18.8342 10.5398 19.2895 11.0774C19.7447 11.6149 19.9963 12.2955 20.0001 12.9999C20.0001 13.7955 19.6841 14.5586 19.1215 15.1212C18.5588 15.6838 17.7958 15.9999 17.0001 15.9999H16.0001C15.7349 15.9999 15.4806 16.1053 15.293 16.2928C15.1055 16.4803 15.0001 16.7347 15.0001 16.9999C15.0001 17.2651 15.1055 17.5195 15.293 17.707C15.4806 17.8945 15.7349 17.9999 16.0001 17.9999H17.0001C18.1938 17.9889 19.344 17.5512 20.2431 16.766C21.1421 15.9808 21.7306 14.8998 21.9021 13.7185C22.0736 12.5373 21.8169 11.3336 21.1783 10.3251C20.5397 9.31665 19.5613 8.56991 18.4201 8.2199Z" fill="black"/>
</svg>
