<svg width="24" height="24" viewBox="0 0 24 24" fill="none" xmlns="http://www.w3.org/2000/svg">
<path d="M14.9998 12.4999C14.8063 12.5012 14.6174 12.5585 14.4558 12.665C14.2943 12.7715 14.1672 12.9226 14.0898 13.0999C13.459 12.7107 12.7325 12.5044 11.9913 12.504C11.2502 12.5037 10.5235 12.7092 9.89231 13.0978C9.26116 13.4864 8.75037 14.0426 8.41694 14.7046C8.08352 15.3665 7.94056 16.1081 8.00402 16.8465C8.06748 17.585 8.33486 18.2913 8.77634 18.8866C9.21781 19.482 9.81602 19.9429 10.5042 20.2181C11.1924 20.4933 11.9435 20.5719 12.6738 20.445C13.404 20.3182 14.0847 19.991 14.6398 19.4999C14.7449 19.4152 14.8318 19.3101 14.8952 19.191C14.9587 19.0718 14.9973 18.941 15.0088 18.8065C15.0204 18.672 15.0045 18.5366 14.9623 18.4084C14.9201 18.2802 14.8524 18.1618 14.7632 18.0605C14.674 17.9591 14.5652 17.8769 14.4434 17.8187C14.3216 17.7605 14.1893 17.7276 14.0544 17.722C13.9195 17.7163 13.7849 17.738 13.6587 17.7858C13.5324 17.8336 13.4171 17.9064 13.3198 17.9999C12.9552 18.3215 12.4859 18.4992 11.9998 18.4999C11.696 18.495 11.3972 18.4209 11.1263 18.2834C10.8554 18.1458 10.6194 17.9482 10.4362 17.7058C10.2531 17.4634 10.1276 17.1824 10.0692 16.8842C10.0109 16.586 10.0212 16.2784 10.0995 15.9848C10.1778 15.6912 10.322 15.4193 10.521 15.1898C10.7201 14.9602 10.9689 14.7791 11.2485 14.66C11.528 14.541 11.831 14.4872 12.1345 14.5028C12.4379 14.5184 12.7339 14.6029 12.9998 14.7499H12.7798C12.5145 14.7499 12.2602 14.8553 12.0727 15.0428C11.8851 15.2303 11.7798 15.4847 11.7798 15.7499C11.7798 16.0151 11.8851 16.2695 12.0727 16.457C12.2602 16.6445 12.5145 16.7499 12.7798 16.7499H14.9998C15.265 16.7499 15.5193 16.6445 15.7069 16.457C15.8944 16.2695 15.9998 16.0151 15.9998 15.7499V13.4999C15.9998 13.2347 15.8944 12.9803 15.7069 12.7928C15.5193 12.6053 15.265 12.4999 14.9998 12.4999ZM18.4198 7.71989C17.8088 6.3159 16.7543 5.15097 15.4178 4.40362C14.0814 3.65627 12.5368 3.36773 11.0207 3.5822C9.50464 3.79668 8.10069 4.50235 7.02402 5.59107C5.94735 6.67979 5.25735 8.09151 5.05977 9.60989C4.22198 9.81395 3.47257 10.2833 2.92321 10.9479C2.37386 11.6125 2.05399 12.4369 2.01126 13.2981C1.96854 14.1593 2.20526 15.0113 2.68613 15.727C3.16701 16.4427 3.86629 16.9839 4.67977 17.2699C4.78348 17.3018 4.89125 17.3187 4.99977 17.3199C5.26498 17.3623 5.53619 17.2977 5.75374 17.1401C5.97128 16.9826 6.11733 16.7451 6.15977 16.4799C6.2022 16.2147 6.13754 15.9435 5.98001 15.7259C5.82248 15.5084 5.58498 15.3623 5.31977 15.3199C4.94268 15.1838 4.6152 14.9375 4.37982 14.6129C4.14444 14.2884 4.01203 13.9006 3.99977 13.4999C3.99977 12.9695 4.21048 12.4608 4.58555 12.0857C4.96063 11.7106 5.46933 11.4999 5.99977 11.4999C6.26498 11.4999 6.51934 11.3945 6.70687 11.207C6.89441 11.0195 6.99977 10.7651 6.99977 10.4999C7.00232 9.31717 7.42405 8.17365 8.19004 7.27248C8.95602 6.37131 10.0167 5.77085 11.1835 5.57777C12.3504 5.38469 13.5479 5.6115 14.5633 6.2179C15.5788 6.82431 16.3464 7.77103 16.7298 8.88989C16.7869 9.06173 16.8897 9.21483 17.0271 9.33283C17.1644 9.45083 17.3313 9.52931 17.5098 9.5599C18.1111 9.66874 18.6649 9.95863 19.0969 10.3908C19.529 10.8229 19.8188 11.3767 19.9276 11.9781C20.0363 12.5794 19.9588 13.1997 19.7054 13.7558C19.4521 14.3119 19.0349 14.7774 18.5098 15.0899C18.279 15.2225 18.1104 15.4413 18.041 15.6983C17.9716 15.9552 18.0072 16.2292 18.1398 16.4599C18.2724 16.6906 18.4912 16.8592 18.7481 16.9286C19.0051 16.998 19.279 16.9625 19.5098 16.8299C20.268 16.3898 20.8972 15.7581 21.3342 14.9981C21.7712 14.2381 22.0008 13.3766 21.9998 12.4999C21.9967 11.424 21.6467 10.3778 21.0018 9.5167C20.3568 8.65557 19.4513 8.02544 18.4198 7.71989Z" fill="black"/>
</svg>
