<svg width="24" height="24" viewBox="0 0 24 24" fill="none" xmlns="http://www.w3.org/2000/svg">
<path d="M18.4201 8.2199C17.8091 6.8159 16.7546 5.65097 15.4182 4.90362C14.0818 4.15627 12.5372 3.86773 11.0211 4.0822C9.50501 4.29668 8.10106 5.00235 7.02439 6.09107C5.94772 7.17979 5.25772 8.59151 5.06013 10.1099C4.10672 10.3382 3.27036 10.9087 2.70987 11.7131C2.14939 12.5174 1.90382 13.4996 2.0198 14.4731C2.13578 15.4466 2.60523 16.3436 3.339 16.9938C4.07277 17.6439 5.01976 18.002 6.00013 17.9999C6.26535 17.9999 6.5197 17.8945 6.70724 17.707C6.89478 17.5195 7.00013 17.2651 7.00013 16.9999C7.00013 16.7347 6.89478 16.4803 6.70724 16.2928C6.5197 16.1053 6.26535 15.9999 6.00013 15.9999C5.4697 15.9999 4.96099 15.7892 4.58592 15.4141C4.21085 15.039 4.00013 14.5303 4.00013 13.9999C4.00013 13.4695 4.21085 12.9608 4.58592 12.5857C4.96099 12.2106 5.4697 11.9999 6.00013 11.9999C6.26535 11.9999 6.5197 11.8945 6.70724 11.707C6.89478 11.5195 7.00013 11.2651 7.00013 10.9999C7.00269 9.81717 7.42442 8.67365 8.1904 7.77248C8.95639 6.87131 10.017 6.27085 11.1839 6.07777C12.3507 5.88469 13.5483 6.1115 14.5637 6.7179C15.5791 7.32431 16.3467 8.27104 16.7301 9.3899C16.7873 9.56174 16.89 9.71483 17.0274 9.83283C17.1648 9.95083 17.3316 10.0293 17.5101 10.0599C18.1762 10.1858 18.78 10.5335 19.2232 11.0464C19.6663 11.5594 19.9227 12.2073 19.9505 12.8845C19.9784 13.5618 19.776 14.2286 19.3764 14.7761C18.9769 15.3237 18.4036 15.7198 17.7501 15.8999C17.4929 15.9662 17.2725 16.132 17.1375 16.3608C17.0024 16.5896 16.9638 16.8626 17.0301 17.1199C17.0964 17.3772 17.2622 17.5975 17.491 17.7326C17.7198 17.8676 17.9929 17.9062 18.2501 17.8399C19.3025 17.5618 20.2354 16.9479 20.9071 16.0914C21.5789 15.2348 21.9527 14.1825 21.972 13.0942C21.9912 12.0058 21.6547 10.9409 21.0137 10.0612C20.3727 9.18149 19.462 8.53499 18.4201 8.2199ZM14.7101 14.2899C14.6172 14.1962 14.5066 14.1218 14.3847 14.071C14.2629 14.0202 14.1321 13.9941 14.0001 13.9941C13.8681 13.9941 13.7374 14.0202 13.6156 14.071C13.4937 14.1218 13.3831 14.1962 13.2901 14.2899L12.0001 15.5899L10.7101 14.2899C10.5218 14.1016 10.2664 13.9958 10.0001 13.9958C9.73383 13.9958 9.47844 14.1016 9.29013 14.2899C9.10183 14.4782 8.99604 14.7336 8.99604 14.9999C8.99604 15.2662 9.10183 15.5216 9.29013 15.7099L10.5901 16.9999L9.29013 18.2899C9.19641 18.3829 9.12201 18.4935 9.07124 18.6153C9.02047 18.7372 8.99434 18.8679 8.99434 18.9999C8.99434 19.1319 9.02047 19.2626 9.07124 19.3845C9.12201 19.5063 9.19641 19.6169 9.29013 19.7099C9.3831 19.8036 9.4937 19.878 9.61556 19.9288C9.73742 19.9796 9.86812 20.0057 10.0001 20.0057C10.1321 20.0057 10.2629 19.9796 10.3847 19.9288C10.5066 19.878 10.6172 19.8036 10.7101 19.7099L12.0001 18.4099L13.2901 19.7099C13.3831 19.8036 13.4937 19.878 13.6156 19.9288C13.7374 19.9796 13.8681 20.0057 14.0001 20.0057C14.1321 20.0057 14.2629 19.9796 14.3847 19.9288C14.5066 19.878 14.6172 19.8036 14.7101 19.7099C14.8039 19.6169 14.8783 19.5063 14.929 19.3845C14.9798 19.2626 15.0059 19.1319 15.0059 18.9999C15.0059 18.8679 14.9798 18.7372 14.929 18.6153C14.8783 18.4935 14.8039 18.3829 14.7101 18.2899L13.4101 16.9999L14.7101 15.7099C14.8039 15.6169 14.8783 15.5063 14.929 15.3845C14.9798 15.2626 15.0059 15.1319 15.0059 14.9999C15.0059 14.8679 14.9798 14.7372 14.929 14.6153C14.8783 14.4935 14.8039 14.3829 14.7101 14.2899Z" fill="black"/>
</svg>
