<svg width="24" height="24" viewBox="0 0 24 24" fill="none" xmlns="http://www.w3.org/2000/svg">
<path d="M14.2902 14.1899L11.0002 17.4799L9.71019 16.1899C9.61722 16.0962 9.50662 16.0218 9.38476 15.971C9.2629 15.9202 9.1322 15.8941 9.00019 15.8941C8.86817 15.8941 8.73747 15.9202 8.61561 15.971C8.49375 16.0218 8.38315 16.0962 8.29019 16.1899C8.10393 16.3773 7.99939 16.6307 7.99939 16.8949C7.99939 17.1591 8.10393 17.4125 8.29019 17.5999L10.2902 19.5999C10.3831 19.6936 10.4937 19.768 10.6156 19.8188C10.7375 19.8696 10.8682 19.8957 11.0002 19.8957C11.1322 19.8957 11.2629 19.8696 11.3848 19.8188C11.5066 19.768 11.6172 19.6936 11.7102 19.5999L15.7102 15.5999C15.8964 15.4125 16.001 15.1591 16.001 14.8949C16.001 14.6307 15.8964 14.3773 15.7102 14.1899C15.6172 14.0962 15.5066 14.0218 15.3848 13.971C15.2629 13.9202 15.1322 13.8941 15.0002 13.8941C14.8682 13.8941 14.7375 13.9202 14.6156 13.971C14.4937 14.0218 14.3831 14.0962 14.2902 14.1899ZM18.4202 8.3199C17.8085 6.91571 16.7531 5.75089 15.4159 5.00405C14.0787 4.25721 12.5334 3.96957 11.0171 4.18522C9.50069 4.40087 8.09689 5.10792 7.0209 6.19796C5.94492 7.28799 5.25615 8.70085 5.06019 10.2199C4.22618 10.4268 3.48098 10.8968 2.93493 11.5603C2.38887 12.2238 2.071 13.0455 2.02837 13.9037C1.98573 14.762 2.22061 15.6111 2.69823 16.3255C3.17584 17.0398 3.87079 17.5813 4.68019 17.8699C4.80792 17.9369 4.94864 17.9755 5.09269 17.983C5.23675 17.9906 5.38072 17.9668 5.51474 17.9135C5.64876 17.8601 5.76964 17.7784 5.86911 17.6739C5.96857 17.5694 6.04425 17.4447 6.09096 17.3082C6.13767 17.1717 6.1543 17.0268 6.13971 16.8833C6.12512 16.7397 6.07965 16.6011 6.00643 16.4768C5.93321 16.3525 5.83397 16.2455 5.71552 16.1632C5.59706 16.0809 5.4622 16.0252 5.32019 15.9999C4.93042 15.859 4.59405 15.6005 4.35758 15.2601C4.12111 14.9198 3.99622 14.5143 4.00019 14.0999C4.00019 13.5695 4.2109 13.0608 4.58597 12.6857C4.96105 12.3106 5.46975 12.0999 6.00019 12.0999C6.2654 12.0999 6.51976 11.9945 6.70729 11.807C6.89483 11.6195 7.00019 11.3651 7.00019 11.0999C7.00508 9.91803 7.42848 8.7761 8.19526 7.87671C8.96204 6.97733 10.0226 6.37864 11.1888 6.18686C12.3551 5.99509 13.5515 6.22263 14.5659 6.82912C15.5803 7.43561 16.3471 8.38183 16.7302 9.4999C16.7888 9.66987 16.8923 9.82089 17.0295 9.93704C17.1668 10.0532 17.3328 10.1302 17.5102 10.1599C18.1763 10.2858 18.7801 10.6335 19.2232 11.1464C19.6664 11.6594 19.9228 12.3073 19.9506 12.9845C19.9784 13.6618 19.7761 14.3286 19.3765 14.8761C18.9769 15.4237 18.4037 15.8198 17.7502 15.9999C17.485 16.033 17.2438 16.1702 17.0797 16.3812C16.9156 16.5922 16.842 16.8597 16.8752 17.1249C16.9083 17.3901 17.0455 17.6313 17.2565 17.7954C17.4674 17.9595 17.735 18.033 18.0002 17.9999H18.2502C19.3026 17.7218 20.2355 17.1079 20.9072 16.2514C21.5789 15.3948 21.9528 14.3425 21.972 13.2542C21.9913 12.1658 21.6548 11.1009 21.0138 10.2212C20.3727 9.34149 19.4621 8.69499 18.4202 8.3799V8.3199Z" fill="black"/>
</svg>
