<svg width="24" height="24" viewBox="0 0 24 24" fill="none" xmlns="http://www.w3.org/2000/svg">
<path d="M15.0001 10.9999H10.0001C9.73492 10.9999 9.48056 11.1053 9.29303 11.2928C9.10549 11.4803 9.00013 11.7347 9.00013 11.9999V19.9999C8.99986 20.1816 9.04908 20.3599 9.14251 20.5157C9.23594 20.6715 9.37005 20.7989 9.53043 20.8842C9.69081 20.9696 9.87141 21.0096 10.0528 21C10.2342 20.9904 10.4096 20.9316 10.5601 20.8299L12.5001 19.5299L14.3901 20.7899C14.5647 20.9254 14.7792 20.9992 15.0001 20.9999C15.1525 21.0005 15.303 20.9663 15.4401 20.8999C15.6084 20.8174 15.7502 20.6893 15.8492 20.5302C15.9482 20.3711 16.0005 20.1873 16.0001 19.9999V11.9999C16.0001 11.7347 15.8948 11.4803 15.7072 11.2928C15.5197 11.1053 15.2654 10.9999 15.0001 10.9999ZM14.0001 18.1199L13.0601 17.4899C12.8948 17.3781 12.6997 17.3184 12.5001 17.3184C12.3005 17.3184 12.1055 17.3781 11.9401 17.4899L11.0001 18.1299V12.9999H14.0001V18.1199ZM18.4201 7.21989C17.8091 5.8159 16.7546 4.65097 15.4182 3.90362C14.0818 3.15627 12.5372 2.86773 11.0211 3.0822C9.50501 3.29668 8.10106 4.00235 7.02439 5.09107C5.94772 6.17979 5.25772 7.59151 5.06013 9.10989C4.10672 9.33822 3.27036 9.90873 2.70987 10.7131C2.14939 11.5174 1.90382 12.4996 2.0198 13.4731C2.13578 14.4466 2.60523 15.3436 3.339 15.9938C4.07277 16.6439 5.01976 17.002 6.00013 16.9999C6.26535 16.9999 6.5197 16.8945 6.70724 16.707C6.89478 16.5195 7.00013 16.2651 7.00013 15.9999C7.00013 15.7347 6.89478 15.4803 6.70724 15.2928C6.5197 15.1053 6.26535 14.9999 6.00013 14.9999C5.4697 14.9999 4.96099 14.7892 4.58592 14.4141C4.21085 14.039 4.00013 13.5303 4.00013 12.9999C4.00013 12.4695 4.21085 11.9608 4.58592 11.5857C4.96099 11.2106 5.4697 10.9999 6.00013 10.9999C6.26535 10.9999 6.5197 10.8945 6.70724 10.707C6.89478 10.5195 7.00013 10.2651 7.00013 9.99989C7.00269 8.81717 7.42442 7.67365 8.1904 6.77248C8.95639 5.87131 10.017 5.27085 11.1839 5.07777C12.3507 4.88469 13.5483 5.1115 14.5637 5.7179C15.5791 6.32431 16.3467 7.27103 16.7301 8.38989C16.7873 8.56173 16.89 8.71483 17.0274 8.83283C17.1648 8.95083 17.3316 9.02931 17.5101 9.0599C18.1115 9.16874 18.6652 9.45863 19.0973 9.89078C19.5294 10.3229 19.8192 10.8767 19.9279 11.4781C20.0367 12.0794 19.9592 12.6997 19.7058 13.2558C19.4524 13.8119 19.0353 14.2774 18.5101 14.5899C18.2794 14.7225 18.1108 14.9413 18.0414 15.1983C17.972 15.4552 18.0075 15.7292 18.1401 15.9599C18.2727 16.1906 18.4916 16.3592 18.7485 16.4286C19.0054 16.498 19.2794 16.4625 19.5101 16.3299C20.2684 15.8898 20.8975 15.2581 21.3346 14.4981C21.7716 13.7381 22.0011 12.8766 22.0001 11.9999C21.9971 10.924 21.6471 9.87783 21.0022 9.0167C20.3572 8.15557 19.4517 7.52544 18.4201 7.21989Z" fill="black"/>
</svg>
