<svg width="24" height="24" viewBox="0 0 24 24" fill="none" xmlns="http://www.w3.org/2000/svg">
<path d="M21.0002 12.4999C20.9959 11.3929 20.659 10.3128 20.0331 9.39974C19.4071 8.48671 18.5211 7.78296 17.4902 7.37988C17.4902 5.92119 16.9107 4.52225 15.8792 3.4908C14.8478 2.45935 13.4488 1.87988 11.9902 1.87988C10.5315 1.87988 9.13252 2.45935 8.10107 3.4908C7.06962 4.52225 6.49015 5.92119 6.49015 7.37988C5.29726 7.84793 4.30524 8.7178 3.68536 9.83932C3.06549 10.9608 2.85667 12.2636 3.09497 13.5227C3.33327 14.7818 4.00373 15.9181 4.99058 16.7355C5.97743 17.553 7.21873 18.0001 8.50015 17.9999H8.70015C8.44753 18.8702 8.0262 19.6822 7.46015 20.3899C7.34684 20.5371 7.27675 20.7129 7.25774 20.8976C7.23874 21.0824 7.27157 21.2688 7.35255 21.436C7.43353 21.6031 7.55947 21.7444 7.71624 21.844C7.87301 21.9436 8.05443 21.9976 8.24015 21.9999H15.7602C15.9494 22.0005 16.1349 21.9475 16.2952 21.8469C16.4555 21.7463 16.5839 21.6022 16.6656 21.4315C16.7473 21.2608 16.7789 21.0705 16.7567 20.8825C16.7344 20.6946 16.6594 20.5168 16.5402 20.3699C15.9764 19.6682 15.5552 18.8631 15.3002 17.9999H15.5002C16.958 17.9972 18.3554 17.4169 19.3863 16.3861C20.4172 15.3552 20.9975 13.9578 21.0002 12.4999ZM10.0602 19.9999C10.4582 19.1925 10.7313 18.3293 10.8702 17.4399C11.2739 17.2534 11.6533 17.0183 12.0002 16.7399C12.347 17.0183 12.7264 17.2534 13.1302 17.4399C13.269 18.3293 13.5421 19.1925 13.9402 19.9999H10.0602ZM12.7802 14.6999L12.7002 14.6199L12.6202 14.5399H12.5502L12.3702 14.4499L12.1902 14.3899H11.8102L11.6302 14.4499C11.5687 14.4699 11.5112 14.5003 11.4602 14.5399H11.3802L11.3002 14.6199L11.2202 14.6999C10.8685 15.1347 10.4177 15.4789 9.90558 15.7037C9.39348 15.9285 8.83497 16.0273 8.27684 15.9918C7.7187 15.9563 7.1772 15.7876 6.69768 15.4998C6.21816 15.212 5.81458 14.8135 5.52077 14.3376C5.22695 13.8618 5.05145 13.3224 5.00896 12.7648C4.96647 12.2072 5.05822 11.6474 5.27654 11.1326C5.49487 10.6177 5.83339 10.1626 6.26377 9.80546C6.69414 9.44832 7.20384 9.19951 7.75015 9.07988C7.80555 9.05756 7.85906 9.03081 7.91015 8.99988C7.97193 8.97741 8.03208 8.95068 8.09015 8.91988C8.14167 8.88208 8.18865 8.83846 8.23015 8.78988C8.33043 8.71066 8.40377 8.60239 8.44015 8.47988C8.47194 8.42708 8.49554 8.36976 8.51015 8.30988C8.51987 8.24357 8.51987 8.1762 8.51015 8.10988C8.51498 8.05332 8.51498 7.99645 8.51015 7.93988C8.50022 7.79005 8.50022 7.63972 8.51015 7.48988C8.51015 6.56162 8.8789 5.67139 9.53528 5.01501C10.1917 4.35863 11.0819 3.98988 12.0102 3.98988C12.9384 3.98988 13.8286 4.35863 14.485 5.01501C15.1414 5.67139 15.5102 6.56162 15.5102 7.48988C15.5201 7.63972 15.5201 7.79005 15.5102 7.93988C15.5049 7.99309 15.5049 8.04668 15.5102 8.09988C15.5002 8.16953 15.5002 8.24024 15.5102 8.30988C15.5248 8.36976 15.5484 8.42708 15.5802 8.47988C15.6165 8.60239 15.6899 8.71066 15.7902 8.78988C15.8317 8.83846 15.8786 8.88208 15.9302 8.91988C15.9882 8.95068 16.0484 8.97741 16.1102 8.99988C16.1616 9.02738 16.2151 9.05079 16.2702 9.06988C16.8165 9.18951 17.3262 9.43832 17.7565 9.79546C18.1869 10.1526 18.5254 10.6077 18.7438 11.1226C18.9621 11.6374 19.0538 12.1972 19.0113 12.7548C18.9689 13.3124 18.7934 13.8518 18.4995 14.3276C18.2057 14.8035 17.8022 15.202 17.3226 15.4898C16.8431 15.7776 16.3016 15.9463 15.7435 15.9818C15.1853 16.0173 14.6268 15.9185 14.1147 15.6937C13.6026 15.4689 13.1519 15.1247 12.8002 14.6899L12.7802 14.6999Z" fill="black"/>
</svg>
