<svg width="24" height="24" viewBox="0 0 24 24" fill="none" xmlns="http://www.w3.org/2000/svg">
<path d="M19.0001 14.0001C18.8728 13.967 18.7401 13.9595 18.6098 13.9778C18.4794 13.9961 18.354 14.0399 18.2407 14.1068C18.1273 14.1737 18.0283 14.2623 17.9493 14.3676C17.8702 14.4728 17.8128 14.5926 17.7801 14.7201C17.3977 16.2287 16.5236 17.5667 15.2957 18.5229C14.0679 19.4791 12.5564 19.9989 11.0001 20.0001H5.41014L6.05014 19.3701C6.23639 19.1827 6.34093 18.9293 6.34093 18.6651C6.34093 18.4009 6.23639 18.1475 6.05014 17.9601C5.06763 16.9817 4.39784 15.7335 4.12572 14.3738C3.85361 13.0142 3.99142 11.6044 4.52168 10.3232C5.05195 9.04196 5.95078 7.9471 7.10416 7.17744C8.25755 6.40779 9.61354 5.99802 11.0001 6.00011C11.2654 6.00011 11.5197 5.89475 11.7072 5.70722C11.8948 5.51968 12.0001 5.26533 12.0001 5.00011C12.0001 4.73489 11.8948 4.48054 11.7072 4.293C11.5197 4.10547 11.2654 4.00011 11.0001 4.00011C9.3076 4.00567 7.65094 4.48839 6.22033 5.39285C4.78971 6.29731 3.64313 7.58684 2.91221 9.11343C2.18129 10.64 1.89565 12.3418 2.08808 14.0233C2.28052 15.7049 2.94323 17.2981 4.00014 18.6201L2.29014 20.2901C2.15138 20.4307 2.05739 20.6093 2.02001 20.8033C1.98264 20.9973 2.00356 21.198 2.08014 21.3801C2.15516 21.5627 2.28256 21.7191 2.44628 21.8294C2.61 21.9397 2.80271 21.9991 3.00014 22.0001H11.0001C12.9964 22.0014 14.9364 21.339 16.515 20.117C18.0936 18.8951 19.2211 17.183 19.7201 15.2501C19.7578 15.1207 19.7689 14.9851 19.7528 14.8513C19.7367 14.7176 19.6937 14.5885 19.6265 14.4717C19.5592 14.355 19.4691 14.253 19.3614 14.172C19.2538 14.0909 19.1309 14.0325 19.0001 14.0001ZM21.7101 5.26011L18.7101 2.26011C18.615 2.16907 18.5029 2.09771 18.3801 2.05011C18.1367 1.95009 17.8636 1.95009 17.6201 2.05011C17.4974 2.09771 17.3852 2.16907 17.2901 2.26011L14.2901 5.26011C14.1018 5.44842 13.996 5.70381 13.996 5.97011C13.996 6.23641 14.1018 6.49181 14.2901 6.68011C14.4784 6.86841 14.7338 6.9742 15.0001 6.9742C15.2664 6.9742 15.5218 6.86841 15.7101 6.68011L17.0001 5.41011V11.0001C17.0001 11.2653 17.1055 11.5197 17.293 11.7072C17.4806 11.8948 17.7349 12.0001 18.0001 12.0001C18.2654 12.0001 18.5197 11.8948 18.7072 11.7072C18.8948 11.5197 19.0001 11.2653 19.0001 11.0001V5.41011L20.2901 6.71011C20.3831 6.80384 20.4937 6.87823 20.6156 6.929C20.7374 6.97977 20.8681 7.00591 21.0001 7.00591C21.1322 7.00591 21.2629 6.97977 21.3847 6.929C21.5066 6.87823 21.6172 6.80384 21.7101 6.71011C21.8039 6.61715 21.8783 6.50655 21.929 6.38469C21.9798 6.26283 22.0059 6.13212 22.0059 6.00011C22.0059 5.8681 21.9798 5.73739 21.929 5.61553C21.8783 5.49367 21.8039 5.38307 21.7101 5.29011V5.26011Z" fill="black"/>
</svg>
