<svg width="24" height="24" viewBox="0 0 24 24" fill="none" xmlns="http://www.w3.org/2000/svg">
<path d="M6.77019 9.14994L12.2102 3.70994C12.3034 3.6167 12.3774 3.50601 12.4278 3.38419C12.4783 3.26237 12.5043 3.1318 12.5043 2.99994C12.5043 2.86808 12.4783 2.73751 12.4278 2.61569C12.3774 2.49387 12.3034 2.38318 12.2102 2.28994C12.1169 2.1967 12.0063 2.12274 11.8844 2.07228C11.7626 2.02182 11.632 1.99585 11.5002 1.99585C11.2339 1.99585 10.9785 2.10164 10.7902 2.28994L6.06019 6.99994L4.21019 5.16994C4.02188 4.98164 3.76649 4.87585 3.50019 4.87585C3.23388 4.87585 2.97849 4.98164 2.79019 5.16994C2.60188 5.35825 2.49609 5.61364 2.49609 5.87994C2.49609 6.14624 2.60188 6.40164 2.79019 6.58994L5.35019 9.14994C5.44315 9.24367 5.55375 9.31806 5.67561 9.36883C5.79747 9.4196 5.92817 9.44574 6.06019 9.44574C6.1922 9.44574 6.3229 9.4196 6.44476 9.36883C6.56662 9.31806 6.67722 9.24367 6.77019 9.14994ZM18.5002 5.99994H13.0002C12.735 5.99994 12.4806 6.1053 12.2931 6.29283C12.1055 6.48037 12.0002 6.73472 12.0002 6.99994C12.0002 7.26516 12.1055 7.51951 12.2931 7.70705C12.4806 7.89458 12.735 7.99994 13.0002 7.99994H18.5002C18.7654 7.99994 19.0198 8.1053 19.2073 8.29283C19.3948 8.48037 19.5002 8.73472 19.5002 8.99994V18.7199L17.9302 17.2699C17.7458 17.0973 17.5028 17.0008 17.2502 16.9999H8.50019C8.23497 16.9999 7.98061 16.8946 7.79308 16.707C7.60554 16.5195 7.50019 16.2652 7.50019 15.9999V12.4999C7.50019 12.2347 7.39483 11.9804 7.20729 11.7928C7.01976 11.6053 6.7654 11.4999 6.50019 11.4999C6.23497 11.4999 5.98062 11.6053 5.79308 11.7928C5.60554 11.9804 5.50019 12.2347 5.50019 12.4999V15.9999C5.50019 16.7956 5.81626 17.5587 6.37887 18.1213C6.94147 18.6839 7.70454 18.9999 8.50019 18.9999H16.8602L19.8602 21.7299C20.0446 21.9026 20.2876 21.9991 20.5402 21.9999C20.6773 21.9984 20.813 21.9713 20.9402 21.9199C21.1191 21.8419 21.2712 21.7132 21.3778 21.5497C21.4844 21.3862 21.5409 21.1951 21.5402 20.9999V8.99994C21.5402 8.60259 21.4613 8.20918 21.3081 7.84258C21.1548 7.47597 20.9302 7.14346 20.6474 6.86435C20.3646 6.58525 20.0291 6.36511 19.6605 6.21672C19.2919 6.06833 18.8975 5.99464 18.5002 5.99994Z" fill="black"/>
</svg>
