<svg width="24" height="24" viewBox="0 0 24 24" fill="none" xmlns="http://www.w3.org/2000/svg">
<path d="M19.9998 10.3501L14.2198 2.94009C13.9294 2.63779 13.5801 2.39836 13.1934 2.23665C12.8067 2.07494 12.3909 1.99441 11.9717 2.00003C11.5526 2.00566 11.1391 2.09733 10.7569 2.26936C10.3747 2.44139 10.0319 2.69011 9.74977 3.00009L3.99977 10.3501C3.68141 10.8416 3.5113 11.4145 3.50977 12.0001C3.52647 12.5615 3.69587 13.1077 3.99977 13.5801L4.05977 13.6501L9.79977 21.0601C10.0824 21.3593 10.4235 21.5972 10.802 21.7589C11.1805 21.9206 11.5882 22.0027 11.9998 22.0001C12.4253 21.9997 12.8461 21.9106 13.2352 21.7384C13.6243 21.5662 13.9733 21.3148 14.2598 21.0001L19.9998 13.6501C20.3135 13.1544 20.475 12.5776 20.4644 11.9911C20.4537 11.4046 20.2713 10.834 19.9398 10.3501H19.9998ZM18.4298 12.4901L12.7598 19.7101C12.5687 19.8861 12.3219 19.9895 12.0624 20.0023C11.803 20.0151 11.5472 19.9364 11.3398 19.7801L5.64977 12.4701C5.56481 12.3275 5.5167 12.166 5.50977 12.0001C5.51124 11.8447 5.54531 11.6914 5.60977 11.5501L11.2798 4.33009C11.4709 4.1541 11.7176 4.05071 11.9771 4.03792C12.2366 4.02513 12.4923 4.10375 12.6998 4.26009L18.3298 11.5401C18.4337 11.701 18.4893 11.8885 18.4898 12.0801C18.483 12.2219 18.449 12.3611 18.3898 12.4901H18.4298Z" fill="black"/>
</svg>
