<svg width="24" height="24" viewBox="0 0 24 24" fill="none" xmlns="http://www.w3.org/2000/svg">
<path d="M21.1198 9.8799L14.1198 2.8799C13.5475 2.33689 12.7887 2.03418 11.9998 2.03418C11.2109 2.03418 10.4521 2.33689 9.8798 2.8799L2.8798 9.8799C2.318 10.4424 2.00244 11.2049 2.00244 11.9999C2.00244 12.7949 2.318 13.5574 2.8798 14.1199L9.8798 21.1199C10.4423 21.6817 11.2048 21.9973 11.9998 21.9973C12.7948 21.9973 13.5573 21.6817 14.1198 21.1199L21.1198 14.1199C21.6816 13.5574 21.9972 12.7949 21.9972 11.9999C21.9972 11.2049 21.6816 10.4424 21.1198 9.8799ZM19.7098 12.7099L12.7098 19.7099C12.6168 19.8036 12.5062 19.878 12.3844 19.9288C12.2625 19.9796 12.1318 20.0057 11.9998 20.0057C11.8678 20.0057 11.7371 19.9796 11.6152 19.9288C11.4934 19.878 11.3828 19.8036 11.2898 19.7099L4.2898 12.7099C4.19607 12.6169 4.12168 12.5063 4.07091 12.3845C4.02014 12.2626 3.994 12.1319 3.994 11.9999C3.994 11.8679 4.02014 11.7372 4.07091 11.6153C4.12168 11.4935 4.19607 11.3829 4.2898 11.2899L11.2898 4.2899C11.3828 4.19617 11.4934 4.12178 11.6152 4.07101C11.7371 4.02024 11.8678 3.9941 11.9998 3.9941C12.1318 3.9941 12.2625 4.02024 12.3844 4.07101C12.5062 4.12178 12.6168 4.19617 12.7098 4.2899L19.7098 11.2899C19.8035 11.3829 19.8779 11.4935 19.9287 11.6153C19.9795 11.7372 20.0056 11.8679 20.0056 11.9999C20.0056 12.1319 19.9795 12.2626 19.9287 12.3845C19.8779 12.5063 19.8035 12.6169 19.7098 12.7099ZM14.2098 9.2899C14.0215 9.1016 13.7661 8.99581 13.4998 8.99581C13.2335 8.99581 12.9781 9.1016 12.7898 9.2899C12.6015 9.4782 12.4957 9.7336 12.4957 9.9999C12.4957 10.2662 12.6015 10.5216 12.7898 10.7099L13.0898 10.9999H9.4998C9.23459 10.9999 8.98023 11.1053 8.7927 11.2928C8.60516 11.4803 8.4998 11.7347 8.4998 11.9999V13.9999C8.4998 14.2651 8.60516 14.5195 8.7927 14.707C8.98023 14.8945 9.23459 14.9999 9.4998 14.9999C9.76502 14.9999 10.0194 14.8945 10.2069 14.707C10.3944 14.5195 10.4998 14.2651 10.4998 13.9999V12.9999H13.0898L12.7898 13.2899C12.6961 13.3829 12.6217 13.4935 12.5709 13.6153C12.5201 13.7372 12.494 13.8679 12.494 13.9999C12.494 14.1319 12.5201 14.2626 12.5709 14.3845C12.6217 14.5063 12.6961 14.6169 12.7898 14.7099C12.8828 14.8036 12.9934 14.878 13.1152 14.9288C13.2371 14.9796 13.3678 15.0057 13.4998 15.0057C13.6318 15.0057 13.7625 14.9796 13.8844 14.9288C14.0062 14.878 14.1168 14.8036 14.2098 14.7099L16.2098 12.7099C16.3035 12.6169 16.3779 12.5063 16.4287 12.3845C16.4795 12.2626 16.5056 12.1319 16.5056 11.9999C16.5056 11.8679 16.4795 11.7372 16.4287 11.6153C16.3779 11.4935 16.3035 11.3829 16.2098 11.2899L14.2098 9.2899Z" fill="black"/>
</svg>
