<svg width="24" height="24" viewBox="0 0 24 24" fill="none" xmlns="http://www.w3.org/2000/svg">
<path d="M11.9911 1.00068C10.5578 0.948525 9.12886 1.18737 7.79047 1.7028C6.45208 2.21823 5.23202 2.99955 4.20397 3.99958C3.17592 4.99961 2.36119 6.19762 1.80899 7.52125C1.25678 8.84489 0.978544 10.2667 0.99108 11.7009C0.972288 13.1786 1.26683 14.6436 1.85529 15.9993C2.44375 17.355 3.31279 18.5706 4.40514 19.5661L4.45687 21.2565C4.47153 21.7238 4.66748 22.1671 5.00323 22.4924C5.33898 22.8178 5.78817 22.9997 6.2557 22.9997C6.50578 22.9994 6.75311 22.9475 6.98226 22.8474L8.90316 22.0007C9.91047 22.2689 10.9487 22.4035 11.9911 22.4011C13.4244 22.4532 14.8534 22.2144 16.1918 21.699C17.5303 21.1836 18.7504 20.4023 19.7786 19.4023C20.8067 18.4022 21.6215 17.2042 22.1738 15.8806C22.7261 14.5569 23.0045 13.1351 22.9921 11.7009C23.0045 10.2667 22.7261 8.84481 22.1738 7.52116C21.6215 6.19751 20.8067 4.99951 19.7786 3.99948C18.7504 2.99946 17.5303 2.21816 16.1919 1.70275C14.8534 1.18734 13.4244 0.948508 11.9911 1.00068ZM11.9911 20.4011C11.101 20.4036 10.2147 20.2857 9.35632 20.0505C8.9588 19.9432 8.53653 19.9757 8.16003 20.1423L6.44616 20.8981L6.40124 19.405C6.3913 19.1631 6.33294 18.9257 6.22961 18.7068C6.12628 18.4879 5.98008 18.292 5.79967 18.1306C4.90022 17.321 4.18429 16.3285 3.69989 15.2195C3.21548 14.1106 2.97381 12.9109 2.99108 11.7009C2.98468 10.531 3.21537 9.37204 3.66924 8.29382C4.12311 7.21561 4.79074 6.24054 5.63184 5.42746C6.47293 4.61438 7.47006 3.98015 8.56302 3.56306C9.65599 3.14597 10.8221 2.95466 11.9911 3.00068C13.1585 2.96099 14.3219 3.15666 15.4121 3.57602C16.5023 3.99538 17.497 4.62986 18.3369 5.44167C19.1767 6.25347 19.8447 7.226 20.3008 8.30133C20.757 9.37666 20.992 10.5328 20.992 11.7009C20.992 12.869 20.757 14.0251 20.3008 15.1004C19.8447 16.1757 19.1767 17.1483 18.3369 17.9601C17.497 18.7719 16.5023 19.4064 15.4121 19.8257C14.3219 20.2451 13.1585 20.4407 11.9911 20.4011ZM15.7255 8.58564L13.413 11.3405L10.0663 9.28388C9.86203 9.15816 9.61934 9.1102 9.38263 9.14876C9.14591 9.18732 8.931 9.30983 8.77721 9.49388L5.72546 13.1306C5.6406 13.231 5.5764 13.3473 5.53655 13.4726C5.49669 13.598 5.48197 13.7299 5.49321 13.861C5.50446 13.992 5.54146 14.1195 5.60209 14.2363C5.66271 14.353 5.74578 14.4566 5.84652 14.5411C5.94726 14.6257 6.0637 14.6895 6.18916 14.729C6.31462 14.7685 6.44664 14.7828 6.57765 14.7711C6.70865 14.7595 6.83607 14.7221 6.9526 14.6611C7.06912 14.6001 7.17247 14.5167 7.25671 14.4157L9.75471 11.4401L13.1014 13.4958C13.3055 13.6216 13.5481 13.6697 13.7848 13.6313C14.0215 13.593 14.2365 13.4707 14.3905 13.2868L17.2567 9.8708C17.342 9.77038 17.4067 9.65408 17.4469 9.52858C17.4872 9.40308 17.5022 9.27086 17.4912 9.13953C17.4801 9.0082 17.4432 8.88035 17.3825 8.76334C17.3219 8.64633 17.2387 8.54247 17.1377 8.45774C17.0368 8.37302 16.9201 8.30909 16.7943 8.26964C16.6686 8.23019 16.5362 8.216 16.405 8.22789C16.2737 8.23978 16.1461 8.2775 16.0295 8.3389C15.9129 8.4003 15.8095 8.48415 15.7255 8.58564Z" fill="black"/>
</svg>
