<svg width="24" height="24" viewBox="0 0 24 24" fill="none" xmlns="http://www.w3.org/2000/svg">
<path d="M21.7102 20.2902L3.71019 2.29019C3.52188 2.10188 3.26649 1.99609 3.00019 1.99609C2.73388 1.99609 2.47849 2.10188 2.29019 2.29019C2.10188 2.47849 1.99609 2.73388 1.99609 3.00019C1.99609 3.26649 2.10188 3.52188 2.29019 3.71019L4.00019 5.41019V19.0002C4.00019 19.7958 4.31626 20.5589 4.87887 21.1215C5.44147 21.6841 6.20454 22.0002 7.00019 22.0002H17.0002C17.4642 21.9986 17.9216 21.8895 18.3363 21.6812C18.751 21.473 19.1118 21.1714 19.3902 20.8002L20.2902 21.7102C20.3831 21.8039 20.4937 21.8783 20.6156 21.9291C20.7375 21.9798 20.8682 22.006 21.0002 22.006C21.1322 22.006 21.2629 21.9798 21.3848 21.9291C21.5066 21.8783 21.6172 21.8039 21.7102 21.7102C21.8039 21.6172 21.8783 21.5066 21.9291 21.3848C21.9798 21.2629 22.006 21.1322 22.006 21.0002C22.006 20.8682 21.9798 20.7375 21.9291 20.6156C21.8783 20.4937 21.8039 20.3831 21.7102 20.2902ZM17.0002 20.0002H7.00019C6.73497 20.0002 6.48062 19.8948 6.29308 19.7073C6.10554 19.5198 6.00019 19.2654 6.00019 19.0002V7.41019L17.9302 19.3402C17.8609 19.5319 17.7347 19.6978 17.5685 19.8157C17.4023 19.9337 17.204 19.9981 17.0002 20.0002ZM8.66019 4.00019H12.0002V7.00019C12.0002 7.79584 12.3163 8.5589 12.8789 9.12151C13.4415 9.68412 14.2045 10.0002 15.0002 10.0002H18.0002V13.3402C18.0002 13.6054 18.1055 13.8598 18.2931 14.0473C18.4806 14.2348 18.735 14.3402 19.0002 14.3402C19.2654 14.3402 19.5198 14.2348 19.7073 14.0473C19.8948 13.8598 20.0002 13.6054 20.0002 13.3402V9.00019C20.0002 9.00019 20.0002 9.00019 20.0002 8.94019C19.9898 8.84832 19.9697 8.75782 19.9402 8.67019V8.58019C19.8921 8.47737 19.828 8.38285 19.7502 8.30019L13.7502 2.30019C13.6675 2.2224 13.573 2.15827 13.4702 2.11019H13.3802L13.0602 2.00019H8.66019C8.39497 2.00019 8.14061 2.10554 7.95308 2.29308C7.76554 2.48061 7.66019 2.73497 7.66019 3.00019C7.66019 3.2654 7.76554 3.51976 7.95308 3.70729C8.14061 3.89483 8.39497 4.00019 8.66019 4.00019ZM14.0002 5.41019L16.5902 8.00019H15.0002C14.735 8.00019 14.4806 7.89483 14.2931 7.70729C14.1055 7.51976 14.0002 7.2654 14.0002 7.00019V5.41019Z" fill="black"/>
</svg>
