<svg width="24" height="24" viewBox="0 0 24 24" fill="none" xmlns="http://www.w3.org/2000/svg">
<path d="M21.7001 7.56986C21.5797 7.45153 21.4312 7.36563 21.2686 7.32016C21.106 7.2747 20.9345 7.27115 20.7701 7.30986C20.5535 7.35937 20.3323 7.38618 20.1101 7.38986C19.3145 7.38986 18.5514 7.07379 17.9888 6.51118C17.4262 5.94857 17.1101 5.18551 17.1101 4.38986C17.113 4.17092 17.1398 3.95296 17.1901 3.73986C17.2299 3.57479 17.2269 3.40232 17.1815 3.23871C17.1362 3.07509 17.0499 2.92572 16.9309 2.80467C16.8118 2.68362 16.6639 2.59487 16.5011 2.54679C16.3382 2.49871 16.1658 2.49288 16.0001 2.52986C15.0048 2.7496 14.1021 3.27242 13.4163 4.02636C12.7304 4.78029 12.295 5.72829 12.1701 6.73986C11.6269 6.58462 11.0651 6.50389 10.5001 6.49986C9.05898 6.49904 7.66569 7.01696 6.575 7.95892C5.48431 8.90088 4.76909 10.2039 4.56013 11.6299C3.86376 11.8238 3.24452 12.2285 2.78746 12.7886C2.33041 13.3486 2.05796 14.0364 2.00755 14.7575C1.95714 15.4786 2.13123 16.1976 2.50592 16.8158C2.88061 17.4339 3.43752 17.9209 4.10013 18.2099C4.22757 18.2604 4.36307 18.2875 4.50013 18.2899C4.73132 18.2917 4.95603 18.2135 5.13601 18.0683C5.31598 17.9232 5.44011 17.7202 5.48727 17.4938C5.53442 17.2675 5.50169 17.0318 5.39464 16.8269C5.28759 16.622 5.11284 16.4605 4.90013 16.3699C4.63182 16.2556 4.40326 16.0646 4.24314 15.8208C4.08302 15.5771 3.99848 15.2915 4.00013 14.9999C4.00013 14.602 4.15816 14.2205 4.43947 13.9392C4.72077 13.6579 5.1023 13.4999 5.50013 13.4999C5.76534 13.4999 6.0197 13.3945 6.20723 13.207C6.39477 13.0194 6.50013 12.7651 6.50013 12.4999C6.50013 11.439 6.92156 10.4216 7.6717 9.67143C8.42185 8.92129 9.43926 8.49986 10.5001 8.49986C11.2761 8.49924 12.0348 8.72894 12.6801 9.15986C13.4071 9.63802 13.9582 10.3402 14.2501 11.1599C14.3073 11.3317 14.41 11.4848 14.5474 11.6028C14.6848 11.7208 14.8516 11.7993 15.0301 11.8299C15.5107 11.8819 15.963 12.0827 16.3239 12.4043C16.6847 12.7259 16.9362 13.1522 17.043 13.6236C17.1498 14.095 17.1068 14.588 16.9198 15.0338C16.7328 15.4795 16.4113 15.8557 16.0001 16.1099C15.7773 16.2557 15.6216 16.4841 15.5672 16.7448C15.5129 17.0055 15.5643 17.2771 15.7101 17.4999C15.856 17.7226 16.0844 17.8784 16.3451 17.9327C16.6057 17.9871 16.8773 17.9357 17.1001 17.7899C17.6911 17.3903 18.1739 16.8505 18.5055 16.2188C18.837 15.5872 19.007 14.8832 19.0001 14.1699C19.004 13.473 18.8357 12.786 18.5101 12.1699C19.3689 11.93 20.1468 11.4622 20.7612 10.8161C21.3757 10.17 21.8038 9.36961 22.0001 8.49986C22.0339 8.33213 22.024 8.15855 21.9715 7.99572C21.9189 7.83289 21.8255 7.68626 21.7001 7.56986ZM17.1101 10.3899C16.9704 10.4011 16.8299 10.4011 16.6901 10.3899C16.4718 10.2402 16.2409 10.1098 16.0001 9.99986C15.5903 9.1017 14.9651 8.31855 14.1801 7.71986C14.1801 7.59986 14.1801 7.46986 14.1801 7.34986C14.1801 6.91654 14.2739 6.48835 14.4552 6.09476C14.6365 5.70117 14.9008 5.35152 15.2301 5.06986C15.385 6.13671 15.8805 7.12495 16.6427 7.88724C17.405 8.64952 18.3933 9.14502 19.4601 9.29986C19.1747 9.64558 18.8155 9.92295 18.4088 10.1116C18.0022 10.3002 17.5584 10.3953 17.1101 10.3899ZM11.1101 14.3299C10.9448 14.2181 10.7497 14.1584 10.5501 14.1584C10.3505 14.1584 10.1555 14.2181 9.99013 14.3299C9.84013 14.4099 7.50013 15.9999 7.50013 18.4999C7.50013 19.2955 7.8162 20.0586 8.37881 20.6212C8.94142 21.1838 9.70448 21.4999 10.5001 21.4999C11.2958 21.4999 12.0588 21.1838 12.6214 20.6212C13.1841 20.0586 13.5001 19.2955 13.5001 18.4999C13.5001 15.9999 11.1501 14.3999 11.0601 14.3299H11.1101ZM10.5001 19.4999C10.2349 19.4999 9.98056 19.3945 9.79302 19.207C9.60548 19.0194 9.50013 18.7651 9.50013 18.4999C9.56327 17.7292 9.92151 17.0127 10.5001 16.4999C11.0787 17.0127 11.437 17.7292 11.5001 18.4999C11.5001 18.7651 11.3948 19.0194 11.2072 19.207C11.0197 19.3945 10.7653 19.4999 10.5001 19.4999Z" fill="black"/>
</svg>
