<svg width="24" height="24" viewBox="0 0 24 24" fill="none" xmlns="http://www.w3.org/2000/svg">
<path d="M21.7102 20.2902L20.1102 18.6902L3.71019 2.29019C3.61695 2.19695 3.50626 2.12299 3.38443 2.07253C3.26261 2.02207 3.13204 1.99609 3.00019 1.99609C2.86833 1.99609 2.73776 2.02207 2.61594 2.07253C2.49411 2.12299 2.38342 2.19695 2.29019 2.29019C2.10188 2.47849 1.99609 2.73388 1.99609 3.00019C1.99609 3.26649 2.10188 3.52188 2.29019 3.71019L3.69019 5.10019C3.24732 5.63463 3.00346 6.3061 3.00019 7.00019V18.0002C3.00019 18.7958 3.31626 19.5589 3.87887 20.1215C4.44147 20.6841 5.20454 21.0002 6.00019 21.0002H18.0002C18.4472 20.9975 18.8879 20.895 19.2902 20.7002L20.2902 21.7002C20.3831 21.7939 20.4937 21.8683 20.6156 21.9191C20.7375 21.9698 20.8682 21.996 21.0002 21.996C21.1322 21.996 21.2629 21.9698 21.3848 21.9191C21.5066 21.8683 21.6172 21.7939 21.7102 21.7002C21.8964 21.5128 22.001 21.2594 22.001 20.9952C22.001 20.731 21.8964 20.4775 21.7102 20.2902ZM6.00019 19.0002C5.73497 19.0002 5.48062 18.8948 5.29308 18.7073C5.10554 18.5198 5.00019 18.2654 5.00019 18.0002V7.00019C5.00263 6.83944 5.04379 6.68164 5.12019 6.54019L17.5902 19.0002H6.00019ZM10.6202 6.00019C10.8183 6.011 11.0086 6.08047 11.1671 6.19978C11.3256 6.31908 11.445 6.48283 11.5102 6.67019L12.0502 8.31019C12.1156 8.51067 12.2426 8.68537 12.4133 8.80929C12.5839 8.93322 12.7893 9.00003 13.0002 9.00019H18.0002C18.2654 9.00019 18.5198 9.10554 18.7073 9.29308C18.8948 9.48062 19.0002 9.73497 19.0002 10.0002V14.3402C19.0002 14.6054 19.1055 14.8598 19.2931 15.0473C19.4806 15.2348 19.735 15.3402 20.0002 15.3402C20.2654 15.3402 20.5198 15.2348 20.7073 15.0473C20.8948 14.8598 21.0002 14.6054 21.0002 14.3402V10.0002C21.0002 9.20454 20.6841 8.44147 20.1215 7.87887C19.5589 7.31626 18.7958 7.00019 18.0002 7.00019H13.7202L13.4002 6.00019C13.2024 5.43847 12.842 4.94831 12.3647 4.59215C11.8874 4.23598 11.315 4.02991 10.7202 4.00019C10.5889 3.99362 10.4575 4.01298 10.3337 4.05717C10.2099 4.10136 10.0959 4.16951 9.99843 4.25772C9.90093 4.34594 9.82176 4.4525 9.76544 4.57131C9.70912 4.69012 9.67675 4.81886 9.67019 4.95019C9.66362 5.08151 9.68298 5.21284 9.72717 5.33668C9.77136 5.46051 9.83951 5.57444 9.92772 5.67194C10.0159 5.76944 10.1225 5.84861 10.2413 5.90493C10.3601 5.96125 10.4889 5.99362 10.6202 6.00019Z" fill="black"/>
</svg>
