<svg width="24" height="24" viewBox="0 0 24 24" fill="none" xmlns="http://www.w3.org/2000/svg">
<path d="M21.8501 17.47L16.8501 9.46996C16.7604 9.32525 16.6353 9.20583 16.4865 9.12302C16.3378 9.04021 16.1703 8.99674 16.0001 8.99674C15.8298 8.99674 15.6624 9.04021 15.5137 9.12302C15.3649 9.20583 15.2398 9.32525 15.1501 9.46996L14.1501 11.1L10.8601 5.49996C10.7715 5.35074 10.6457 5.22712 10.4949 5.14126C10.3441 5.0554 10.1736 5.01025 10.0001 5.01025C9.82657 5.01025 9.65604 5.0554 9.50526 5.14126C9.35448 5.22712 9.22863 5.35074 9.14009 5.49996L2.14009 17.5C2.05257 17.6515 2.00637 17.8234 2.0061 17.9985C2.00584 18.1735 2.05152 18.3455 2.13857 18.4974C2.22563 18.6492 2.35102 18.7755 2.5022 18.8637C2.65338 18.9519 2.82506 18.9989 3.00009 19H21.0001C21.1788 19.0003 21.3543 18.9528 21.5084 18.8623C21.6624 18.7719 21.7895 18.6418 21.8762 18.4856C21.963 18.3294 22.0064 18.1528 22.0018 17.9742C21.9972 17.7956 21.9448 17.6215 21.8501 17.47ZM10.4501 17H4.74009L10.0001 7.99996L12.9301 13L10.4501 17ZM12.8001 17L15.0001 13.57L16.0001 11.89L19.2001 17H12.8001Z" fill="black"/>
</svg>
