<svg width="24" height="24" viewBox="0 0 24 24" fill="none" xmlns="http://www.w3.org/2000/svg">
<path d="M21.6399 12.9999C21.4955 12.8806 21.3206 12.8042 21.135 12.7795C20.9493 12.7547 20.7605 12.7826 20.5899 12.8599C19.5325 13.3438 18.3828 13.5928 17.2199 13.5899C15.0687 13.5873 13.0059 12.7344 11.481 11.217C9.9562 9.69967 9.09309 7.64102 9.07989 5.48991C9.08445 4.81574 9.16836 4.14445 9.32989 3.48991C9.36417 3.31545 9.35131 3.135 9.29265 2.96716C9.23398 2.79932 9.13163 2.65016 8.99613 2.53504C8.86064 2.41992 8.6969 2.343 8.52179 2.31222C8.34668 2.28144 8.16652 2.2979 7.99989 2.35991C6.43222 3.06482 5.06946 4.15667 4.03965 5.53289C3.00984 6.90911 2.34677 8.52453 2.11274 10.2274C1.87871 11.9303 2.0814 13.6647 2.70176 15.2677C3.32213 16.8707 4.3398 18.2897 5.65919 19.3914C6.97858 20.4931 8.55637 21.2413 10.2443 21.5657C11.9323 21.8902 13.675 21.7802 15.3088 21.2461C16.9426 20.7121 18.4139 19.7715 19.5843 18.5127C20.7547 17.2539 21.586 15.7182 21.9999 14.0499C22.0503 13.8589 22.043 13.6572 21.979 13.4704C21.9149 13.2835 21.7969 13.1198 21.6399 12.9999ZM12.1399 19.6899C10.4617 19.6781 8.82809 19.1478 7.46288 18.1716C6.09767 17.1955 5.06756 15.8212 4.51357 14.237C3.95959 12.6528 3.90883 10.9361 4.36823 9.32191C4.82763 7.70773 5.77475 6.27501 7.07989 5.21991V5.48991C7.08254 8.17839 8.15171 10.756 10.0528 12.657C11.9538 14.5581 14.5314 15.6273 17.2199 15.6299C17.9258 15.6325 18.6299 15.5587 19.3199 15.4099C18.6298 16.7154 17.5964 17.8077 16.331 18.5691C15.0657 19.3304 13.6166 19.7317 12.1399 19.7299V19.6899Z" fill="black"/>
</svg>
